<svg width="13" height="40" viewBox="0 0 13 40" fill="none" xmlns="http://www.w3.org/2000/svg">
<path d="M12.806 20.7127C12.806 13.4744 3.89727 8.40757 3.89727 3.50779C3.89727 1.72606 5.1779 0.278396 6.90395 0C3.61888 0 1.00195 2.50557 1.00195 5.62361C1.00195 11.0802 11.0799 17.706 11.0799 24.0534C11.0799 25.3897 10.6345 26.559 9.96631 27.6169C11.6924 25.8352 12.806 23.3853 12.806 20.7127Z" fill="#282828"/>
<path d="M0 18.7082C0 25.9465 8.90868 31.0133 8.90868 35.9131C8.90868 37.6948 7.62806 39.1425 5.902 39.4209C9.18708 39.4209 11.804 36.9153 11.804 33.7973C11.804 28.3407 1.72606 21.7149 1.72606 15.3674C1.72606 14.0311 2.17149 12.8619 2.83964 11.804C1.11359 13.5857 0 16.0356 0 18.7082Z" fill="#282828"/>
</svg>