<svg width="48" height="48" viewBox="0 0 48 48" fill="none" xmlns="http://www.w3.org/2000/svg">
<path d="M43.9378 37.3598C46.5827 33.4126 47.9965 28.7691 48 24.0177C48.0016 17.6724 45.4916 11.5845 41.0184 7.08417C36.5453 2.58386 30.4726 0.0370807 24.1275 0.000338733C19.3761 -0.0248998 14.7242 1.36076 10.7611 3.98175C6.79792 6.60275 3.70195 10.3411 1.86537 14.7233C0.0288014 19.1054 -0.465714 23.9341 0.44448 28.5975C1.35467 33.2609 3.62862 37.5492 6.97821 40.9192C10.3278 44.2891 14.6023 46.5889 19.2601 47.5273C23.918 48.4657 28.7495 48.0004 33.1427 46.1903C37.5359 44.3803 41.2929 41.307 43.9378 37.3598Z" fill="white"/>
<path d="M48 24.0177C47.9965 28.7691 46.5827 33.4126 43.9378 37.3598C41.2929 41.307 37.5359 44.3803 33.1427 46.1903C28.7496 48.0004 23.918 48.4657 19.2601 47.5273C14.6023 46.5889 10.3278 44.2891 6.97821 40.9192C3.62862 37.5492 1.35467 33.2609 0.44448 28.5975C-0.465714 23.9341 0.0288015 19.1054 1.86537 14.7233C3.70195 10.3411 6.79792 6.60275 10.7611 3.98175C14.7242 1.36076 19.3761 -0.0248998 24.1275 0.000338733C30.4726 0.0370807 36.5453 2.58386 41.0184 7.08417C45.4916 11.5845 48.0016 17.6724 48 24.0177ZM0.80803 23.9879C0.807768 28.5744 2.16737 33.058 4.71496 36.872C7.26255 40.6859 10.8837 43.6588 15.1207 45.415C19.3577 47.1712 24.0203 47.6317 28.5189 46.7383C33.0176 45.8449 37.1504 43.6378 40.3949 40.396C43.6393 37.1541 45.8498 33.0231 46.7468 28.5251C47.6438 24.0272 47.187 19.3642 45.4342 15.1258C43.6815 10.8874 40.7114 7.26387 36.8996 4.71321C33.0877 2.16256 28.6052 0.799352 24.0187 0.795926C20.9714 0.793241 17.9535 1.39115 15.1375 2.55548C12.3214 3.7198 9.76247 5.42771 7.60688 7.58158C5.45128 9.73544 3.74131 12.293 2.57472 15.1081C1.40813 17.9232 0.807796 20.9406 0.80803 23.9879Z" fill="#1A171B"/>
<path d="M23.9769 46.2947C19.5665 46.2915 15.256 44.9806 11.5907 42.5276C7.92527 40.0747 5.06958 36.5899 3.38471 32.514C1.69983 28.4381 1.26144 23.9541 2.12497 19.629C2.98851 15.3039 5.11518 11.3321 8.23607 8.21565C11.3569 5.09924 15.3319 2.97826 19.6582 2.12093C23.9845 1.2636 28.4678 1.70842 32.5413 3.39914C36.6148 5.08986 40.0955 7.95055 42.5432 11.6194C44.9909 15.2883 46.2956 19.6007 46.2924 24.0111C46.2904 26.9395 45.7115 29.8388 44.5889 32.5436C43.4663 35.2483 41.8219 37.7054 39.7498 39.7746C37.6776 41.8438 35.2181 43.4846 32.5118 44.6033C29.8055 45.722 26.9053 46.2968 23.9769 46.2947ZM26.3086 21.129C26.3208 21.0816 26.3298 21.0333 26.3357 20.9847C26.3357 20.2259 26.3415 19.4672 26.3357 18.7085C26.3291 18.5961 26.2988 18.4864 26.2468 18.3865C25.6821 17.2078 25.1145 16.0308 24.5442 14.8554C24.2732 14.2957 23.9996 13.7373 23.7215 13.1674C22.9148 13.1674 22.1152 13.1629 21.3161 13.1705C21.094 13.1705 21.0109 13.2513 20.9745 13.4201C20.9617 13.46 20.9573 13.5021 20.9616 13.5438C20.9658 13.5854 20.9786 13.6258 20.9992 13.6623C21.0197 13.6988 21.0476 13.7306 21.081 13.7558C21.1145 13.781 21.1527 13.7991 21.1935 13.8088C21.3851 13.8905 21.5379 14.0429 21.6199 14.2344C22.3258 15.6905 23.0414 17.1422 23.7521 18.5957C24.1351 19.3778 24.5169 20.1609 24.8978 20.9451C24.9453 21.0437 24.9937 21.129 25.1199 21.129C25.5086 21.1286 25.9013 21.129 26.3086 21.129ZM41.3541 33.6519C41.7023 33.6524 42.0463 33.5761 42.3616 33.4284C42.6769 33.2806 42.9557 33.0651 43.1781 32.7972C43.5263 32.3808 43.7437 31.8709 43.8031 31.3313C43.8957 30.7958 43.8248 30.2448 43.5995 29.7502C43.3742 29.2557 43.005 28.8405 42.5402 28.559C42.1306 28.3164 41.7033 28.1028 41.2919 27.8629C41.129 27.7717 40.9805 27.6569 40.8513 27.5222C40.7523 27.4254 40.6776 27.3067 40.633 27.1757C40.5885 27.0447 40.5754 26.9051 40.5948 26.768C40.6142 26.631 40.6656 26.5005 40.7448 26.3871C40.824 26.2736 40.9288 26.1803 41.0507 26.1149C41.1023 26.0851 41.1564 26.0594 41.2155 26.0261C41.2155 25.8484 41.2155 25.6831 41.2155 25.5174C41.2117 25.4783 41.2041 25.4396 41.1929 25.4019C40.8438 25.4009 40.4997 25.4844 40.1898 25.6451C39.88 25.8058 39.6136 26.0391 39.4134 26.325C38.6489 27.5026 38.6253 29.4825 40.2978 30.4518C40.6381 30.649 40.9916 30.8236 41.3324 31.0199C41.5125 31.1224 41.6842 31.239 41.8459 31.3686C42.2745 31.7151 42.2985 32.6844 41.5949 32.9083C41.5123 32.9407 41.4322 32.9793 41.3555 33.0238L41.3541 33.6519ZM8.31482 33.659C8.69092 33.6536 9.06056 33.5605 9.39428 33.3869C9.72799 33.2134 10.0165 32.9643 10.2369 32.6595C10.6411 32.0975 10.8303 31.4092 10.77 30.7196C10.7589 30.2818 10.6363 29.8541 10.414 29.4768C10.1916 29.0995 9.87672 28.7852 9.49909 28.5634C9.28854 28.4301 9.06332 28.3231 8.84876 28.1974C8.53781 28.0139 8.21665 27.842 7.91947 27.6341C7.79521 27.5436 7.696 27.4231 7.63114 27.2837C7.56629 27.1444 7.53793 26.9908 7.54872 26.8375C7.55951 26.6842 7.60911 26.5361 7.69284 26.4072C7.77658 26.2783 7.89171 26.1729 8.02741 26.1007C8.08427 26.0745 8.15623 26.0083 8.16068 25.9554C8.17756 25.7737 8.16734 25.5894 8.16734 25.3779C7.83303 25.3794 7.50348 25.4572 7.2039 25.6056C6.90431 25.754 6.64264 25.9689 6.4389 26.2339C6.17278 26.6018 5.99253 27.0247 5.91143 27.4714C5.83032 27.9181 5.85043 28.3773 5.97026 28.8153C6.08337 29.3503 6.3899 29.8248 6.83114 30.1479C7.12832 30.37 7.45748 30.5508 7.7751 30.7454C8.11202 30.9276 8.43952 31.1267 8.75637 31.342C8.88497 31.4399 8.98514 31.5703 9.04656 31.7199C9.10798 31.8694 9.12843 32.0326 9.1058 32.1927C9.08318 32.3527 9.01829 32.5038 8.91783 32.6305C8.81737 32.7571 8.68497 32.8547 8.53426 32.9132C8.45799 32.943 8.38379 32.9779 8.31215 33.0175L8.31482 33.659ZM24.6517 25.5472C24.5985 25.5361 24.5446 25.5282 24.4904 25.5236C23.7832 25.5236 23.076 25.5236 22.3689 25.5236C22.2967 25.5233 22.2251 25.5359 22.1574 25.561C22.1087 25.5785 22.0652 25.6079 22.0309 25.6466C21.9966 25.6854 21.9726 25.7321 21.9611 25.7825C21.9495 25.833 21.9509 25.8855 21.9651 25.9353C21.9792 25.9851 22.0056 26.0305 22.0419 26.0674C22.0925 26.1199 22.1552 26.1592 22.2245 26.182C22.2906 26.1988 22.3484 26.2388 22.3874 26.2948C22.4264 26.3507 22.4439 26.4189 22.4368 26.4867C22.4395 26.58 22.447 26.6733 22.447 26.767C22.447 28.5972 22.447 30.4275 22.447 32.2579C22.447 32.5382 22.479 32.8239 22.1006 32.9243C21.9673 32.9607 21.934 33.125 21.9624 33.2712C21.9756 33.3327 22.0081 33.3884 22.0553 33.4301C22.1025 33.4717 22.1618 33.4972 22.2245 33.5026C22.2861 33.5119 22.3485 33.5147 22.4106 33.5111C23.1907 33.5111 23.9707 33.5111 24.7507 33.5111C24.8131 33.5126 24.8754 33.5095 24.9373 33.5017C25.1328 33.4689 25.2363 33.3685 25.2483 33.2086C25.2556 33.1698 25.2547 33.1299 25.2457 33.0914C25.2366 33.053 25.2196 33.0169 25.1956 32.9855C25.1717 32.9541 25.1415 32.928 25.1068 32.9091C25.0722 32.8901 25.034 32.8786 24.9946 32.8754C24.9383 32.8658 24.8846 32.8449 24.8366 32.814C24.7886 32.7831 24.7473 32.7428 24.7153 32.6955C24.6833 32.6483 24.6612 32.595 24.6504 32.539C24.6395 32.4829 24.6401 32.4252 24.6521 32.3694C24.6583 32.2659 24.6521 32.1615 24.6521 32.0585V25.5472H24.6517ZM30.5797 33.5128C30.9848 33.5128 31.3904 33.5173 31.796 33.5128C32.0287 33.5093 32.1433 33.424 32.1727 33.2623C32.1827 33.2217 32.1844 33.1795 32.1779 33.1382C32.1713 33.0968 32.1566 33.0572 32.1346 33.0217C32.1125 32.9862 32.0836 32.9554 32.0495 32.9312C32.0153 32.907 31.9767 32.8898 31.9359 32.8807C31.8581 32.8515 31.7912 32.7988 31.7445 32.73C31.6978 32.6612 31.6736 32.5796 31.6751 32.4965C31.6671 32.4143 31.6711 32.3303 31.6711 32.2473C31.6711 30.4378 31.6711 28.6287 31.6711 26.8199C31.6711 26.5182 31.6667 26.2375 32.0301 26.1176C32.1567 26.0758 32.1904 25.935 32.1771 25.8004C32.1715 25.7374 32.1449 25.6782 32.1016 25.6322C32.0582 25.5862 32.0006 25.5561 31.9381 25.5467C31.8466 25.5287 31.7533 25.5211 31.66 25.5241C30.9428 25.5241 30.2254 25.5241 29.5078 25.5241C29.4146 25.5197 29.3213 25.5278 29.2302 25.5481C29.1805 25.5627 29.1351 25.589 29.0979 25.625C29.0606 25.6609 29.0326 25.7053 29.0163 25.7544C28.9999 25.8035 28.9956 25.8558 29.0039 25.9069C29.0121 25.958 29.0326 26.0064 29.0636 26.0478C29.1174 26.1109 29.1875 26.158 29.2662 26.1842C29.336 26.2061 29.3962 26.2513 29.4366 26.3123C29.4771 26.3733 29.4953 26.4463 29.4883 26.5191C29.4883 26.6231 29.4883 26.727 29.4883 26.8301V32.1953C29.4883 32.2992 29.4852 32.4032 29.4883 32.5063C29.4963 32.5843 29.4776 32.6628 29.4352 32.7289C29.3929 32.795 29.3294 32.8447 29.2551 32.8701C29.1612 32.9059 29.0827 32.9733 29.033 33.0606C28.9223 33.3103 29.0641 33.5048 29.3612 33.5097C29.7681 33.5199 30.1741 33.5128 30.5797 33.5128ZM18.4651 29.53V32.2721C18.4651 32.5467 18.4749 32.8141 18.1204 32.9149C18.0566 32.9417 18.0049 32.991 17.9751 33.0534C17.9453 33.1158 17.9395 33.187 17.9587 33.2534C17.9694 33.3155 17.9993 33.3726 18.0443 33.4167C18.0893 33.4608 18.147 33.4896 18.2092 33.4991C18.26 33.5099 18.3119 33.5145 18.3638 33.5128C19.1634 33.5128 19.963 33.5155 20.7626 33.5128C20.9882 33.5128 21.09 33.4387 21.122 33.2907C21.1362 33.2489 21.1415 33.2045 21.1377 33.1605C21.1339 33.1164 21.1209 33.0736 21.0997 33.0348C21.0785 32.996 21.0495 32.9621 21.0145 32.9351C20.9795 32.9081 20.9392 32.8887 20.8963 32.8781C20.8167 32.8529 20.7487 32.8002 20.7045 32.7295C20.6602 32.6588 20.6425 32.5746 20.6546 32.492C20.6577 32.4401 20.6546 32.3881 20.6546 32.3361C20.6546 30.4669 20.6546 28.5973 20.6546 26.7275C20.6546 26.6444 20.6546 26.5613 20.6595 26.4783C20.6548 26.4155 20.6719 26.3531 20.708 26.3015C20.7441 26.25 20.797 26.2126 20.8576 26.1957C20.9065 26.1782 20.9533 26.1552 20.9971 26.1273C21.1375 26.0443 21.1344 25.9083 21.1246 25.772C21.1148 25.6356 21.0113 25.5809 20.8994 25.5472C20.8392 25.5319 20.7771 25.5254 20.7151 25.5281C19.9359 25.5281 19.1569 25.5281 18.378 25.5281C18.3059 25.5278 18.2344 25.5403 18.1666 25.565C18.1138 25.5802 18.0662 25.6096 18.029 25.6501C17.9919 25.6906 17.9665 25.7405 17.9559 25.7944C17.9452 25.8483 17.9495 25.9041 17.9684 25.9557C17.9873 26.0073 18.0201 26.0527 18.0631 26.0869C18.1074 26.1306 18.1617 26.1629 18.2212 26.1811C18.2873 26.1983 18.3456 26.2374 18.3866 26.2921C18.4275 26.3467 18.4488 26.4136 18.4469 26.4818C18.4589 26.5953 18.4647 26.7093 18.4642 26.8234C18.4657 27.7243 18.466 28.6265 18.4651 29.53ZM18.5277 21.1228V21.1255C18.9542 21.1255 19.3802 21.1326 19.8062 21.1228C20.0172 21.1179 20.0972 21.0455 20.1256 20.8927C20.1461 20.8163 20.1361 20.7349 20.0977 20.6657C20.0593 20.5965 19.9956 20.5449 19.9199 20.5218C19.8212 20.488 19.7375 20.4205 19.6836 20.3311C19.6296 20.2418 19.6089 20.1363 19.625 20.0332C19.625 18.1106 19.625 16.1879 19.625 14.265C19.6086 14.162 19.63 14.0564 19.6853 13.9679C19.7405 13.8793 19.8259 13.8137 19.9257 13.7831C19.9729 13.7676 20.0157 13.7408 20.0502 13.7051C20.0848 13.6694 20.1102 13.6258 20.1242 13.5781C20.1382 13.5304 20.1404 13.48 20.1305 13.4313C20.1207 13.3826 20.0992 13.337 20.0678 13.2984C19.9767 13.2185 19.8607 13.1728 19.7396 13.1692C19.2616 13.155 18.7832 13.1625 18.3052 13.1629C17.9623 13.1629 17.6189 13.1572 17.2764 13.1687C17.0778 13.1754 16.9881 13.2576 16.9588 13.4068C16.9364 13.4833 16.9446 13.5656 16.9817 13.6361C17.0189 13.7067 17.082 13.76 17.1578 13.7848C17.4159 13.8657 17.447 14.0452 17.4456 14.2682C17.4421 14.902 17.4456 15.5359 17.4456 16.1703C17.4456 17.4585 17.4434 18.7467 17.4456 20.0349C17.4456 20.2628 17.4074 20.4458 17.1569 20.5236C17.089 20.5467 17.032 20.5942 16.997 20.6568C16.8806 20.8914 16.997 21.129 17.248 21.125C17.6775 21.1179 18.1017 21.1228 18.5277 21.1228ZM14.2464 25.5427C14.1576 25.5321 14.118 25.5232 14.0772 25.5232C13.3811 25.5232 12.685 25.5205 11.9894 25.5232C11.8966 25.5234 11.8049 25.5425 11.7197 25.5792C11.6778 25.5994 11.6411 25.629 11.6126 25.6658C11.584 25.7026 11.5644 25.7455 11.5553 25.7911C11.5462 25.8368 11.5478 25.8839 11.56 25.9289C11.5722 25.9738 11.5946 26.0153 11.6255 26.05C11.683 26.1098 11.7536 26.1554 11.8317 26.1833C11.8959 26.2056 11.9514 26.2478 11.9902 26.3037C12.029 26.3595 12.0491 26.4263 12.0475 26.4943C12.0551 26.5769 12.0524 26.6604 12.0524 26.7435C12.0524 28.5926 12.0524 30.442 12.0524 32.2917C12.0524 32.3645 12.0524 32.437 12.0524 32.5098C12.0608 32.5881 12.0416 32.6668 11.9981 32.7324C11.9546 32.798 11.8896 32.8463 11.8143 32.8692C11.7746 32.8807 11.7364 32.8969 11.7006 32.9176C11.6432 32.9548 11.5991 33.0093 11.5746 33.0731C11.55 33.1369 11.5462 33.2069 11.5638 33.273C11.5811 33.4062 11.6833 33.4604 11.7948 33.4951C11.8448 33.5087 11.8967 33.5145 11.9485 33.5124C12.7796 33.5124 13.6107 33.5124 14.4423 33.5124C14.5252 33.512 14.6071 33.4937 14.6822 33.4586C14.7325 33.4365 14.7758 33.4011 14.8075 33.3562C14.8392 33.3113 14.858 33.2587 14.8621 33.2039C14.8661 33.1491 14.8551 33.0942 14.8303 33.0452C14.8055 32.9962 14.7678 32.9548 14.7213 32.9256C14.6694 32.8908 14.6108 32.8672 14.5494 32.8563C14.5027 32.8503 14.4578 32.8349 14.4172 32.811C14.3767 32.7872 14.3414 32.7554 14.3135 32.7175C14.2855 32.6797 14.2655 32.6366 14.2547 32.5908C14.2439 32.545 14.2424 32.4975 14.2504 32.4512C14.2504 32.3472 14.2504 32.2433 14.2504 32.1402C14.2504 30.0728 14.2504 28.0053 14.2504 25.9377L14.2464 25.5427ZM34.4688 25.5387V32.1664C34.4688 32.2704 34.4657 32.3743 34.4688 32.4774C34.4751 32.5187 34.4732 32.5608 34.4632 32.6014C34.4533 32.642 34.4354 32.6802 34.4106 32.7138C34.3859 32.7475 34.3547 32.776 34.319 32.7976C34.2832 32.8192 34.2436 32.8336 34.2023 32.8399C34.152 32.8527 34.1029 32.8699 34.0557 32.8914C33.9976 32.9157 33.9489 32.9579 33.9164 33.0118C33.884 33.0657 33.8696 33.1286 33.8753 33.1912C33.868 33.2542 33.8842 33.3176 33.9209 33.3693C33.9575 33.421 34.0121 33.4572 34.0739 33.4711C34.1634 33.4955 34.2556 33.5087 34.3484 33.5106C35.1593 33.5139 35.9698 33.5139 36.7801 33.5106C37.091 33.5106 37.2389 33.4218 37.2687 33.2312C37.2984 33.0406 37.2154 32.9309 36.9209 32.8359C36.845 32.8179 36.7778 32.774 36.7309 32.7117C36.684 32.6493 36.6604 32.5726 36.6641 32.4947C36.6592 32.3908 36.6606 32.2868 36.6606 32.1837V25.5387H34.4688ZM30.37 13.1625H28.2378C28.1548 13.1583 28.0716 13.1609 27.9891 13.1705C27.8638 13.1918 27.7461 13.23 27.7172 13.3837C27.6843 13.5614 27.7287 13.7298 27.8873 13.7755C28.1983 13.8644 28.2027 14.0945 28.2027 14.3406C28.2027 16.211 28.2027 18.0817 28.2027 19.9528C28.2027 20.2113 28.1916 20.4481 27.8709 20.5387C27.7048 20.5853 27.699 20.7559 27.7154 20.9074C27.7319 21.0589 27.8487 21.1046 27.9797 21.1193C28.0417 21.1264 28.104 21.1299 28.1663 21.1299C28.8211 21.1299 29.4758 21.1299 30.1306 21.1299C30.2101 21.1247 30.2892 21.1145 30.3674 21.0993L30.37 13.1625ZM11.4909 21.1139C11.5155 21.0645 11.5359 21.0131 11.5518 20.9602C11.7055 20.2299 11.8579 19.4992 12.0089 18.768C12.0752 18.5063 12.081 18.2328 12.0258 17.9685C11.7899 16.9912 11.5722 16.009 11.3506 15.0282C11.2933 14.7754 11.2422 14.5209 11.1955 14.2659C11.1693 14.1862 11.1687 14.1002 11.1938 14.02C11.2189 13.9399 11.2684 13.8696 11.3355 13.8191C11.4981 13.7044 11.6327 13.5672 11.5487 13.3522C11.4692 13.1478 11.2733 13.1616 11.0956 13.1612C10.3786 13.1612 9.66138 13.1612 8.94383 13.1612C8.86091 13.1606 8.7781 13.1675 8.6964 13.1816C8.6289 13.1911 8.56571 13.2204 8.51474 13.2657C8.46378 13.3109 8.4273 13.3702 8.40988 13.4361C8.38827 13.5017 8.39087 13.5728 8.41719 13.6366C8.44351 13.7004 8.49182 13.7527 8.55336 13.784C8.64124 13.8389 8.7151 13.9135 8.76908 14.0019C8.82306 14.0904 8.85567 14.1902 8.86431 14.2935C9.0648 15.173 9.26632 16.0524 9.46889 16.9317C9.73275 18.0842 9.99691 19.237 10.2614 20.3899C10.3169 20.6302 10.3835 20.8683 10.4462 21.1126L11.4909 21.1139ZM25.0395 29.9729C25.2213 30.0317 25.3763 30.1532 25.477 30.3156C25.5776 30.4781 25.6173 30.671 25.589 30.86C25.589 30.9537 25.589 31.047 25.589 31.1407C25.589 31.525 25.5836 31.9097 25.5965 32.2935C25.5887 32.4814 25.6214 32.6688 25.6925 32.8429C25.7635 33.0171 25.8712 33.1739 26.0083 33.3027C26.1453 33.4315 26.3085 33.5292 26.4867 33.5893C26.665 33.6495 26.854 33.6705 27.0411 33.651C27.3545 33.6421 27.657 33.5341 27.9052 33.3426C28.1534 33.151 28.3346 32.8858 28.4226 32.5849C28.4362 32.5455 28.4457 32.5049 28.451 32.4636C28.4583 32.3908 28.4435 32.3175 28.4086 32.2533C28.3737 32.189 28.3202 32.1368 28.2551 32.1033C28.1134 32.0536 28.049 32.1638 27.9802 32.2522C27.9238 32.3255 27.882 32.4156 27.7359 32.3659C27.7305 32.2735 27.7199 32.1735 27.719 32.0731C27.719 31.7622 27.719 31.4512 27.719 31.1381C27.7388 30.802 27.6349 30.4704 27.4268 30.2058C27.2188 29.9412 26.921 29.7619 26.5898 29.7019C26.4809 29.6744 26.3734 29.6393 26.2135 29.5922C26.405 29.5082 26.5374 29.4523 26.668 29.3928C26.8971 29.2943 27.1018 29.1468 27.2677 28.9606C27.4336 28.7744 27.5565 28.554 27.6279 28.3151C27.7404 27.957 27.7708 27.5782 27.7168 27.2068C27.685 26.8736 27.5603 26.556 27.3568 26.2903C27.1533 26.0246 26.8792 25.8215 26.5658 25.704C26.1498 25.5708 25.7141 25.51 25.2776 25.5241C25.1982 25.5249 25.1191 25.5317 25.0408 25.5445V26.1771C25.2958 26.2859 25.5294 26.4232 25.5366 26.7039C25.5574 27.4382 25.5543 28.1738 25.5414 28.9086C25.5343 29.0033 25.4987 29.0936 25.4392 29.1677C25.3798 29.2418 25.2992 29.2961 25.2083 29.3235C25.1519 29.3466 25.0981 29.3772 25.0381 29.4065L25.0395 29.9729ZM12.5784 13.1754C12.5495 13.2749 12.5242 13.3437 12.5095 13.4144C12.3607 14.1358 12.2199 14.859 12.0653 15.579C12.0032 15.8733 12.0088 16.1779 12.0818 16.4697C12.3567 17.6517 12.6148 18.8378 12.8813 20.0234C12.9631 20.3863 13.047 20.7488 13.1314 21.1184H14.1807C14.2085 21.0611 14.2318 21.0016 14.2504 20.9407C14.4139 20.1798 14.5765 19.4184 14.7328 18.6561C14.7548 18.5546 14.7562 18.4498 14.7368 18.3478C14.6138 17.7703 14.4792 17.1929 14.3512 16.6154C14.1291 15.6128 13.9097 14.6098 13.6849 13.6076C13.6516 13.4597 13.6014 13.3158 13.5614 13.1776L12.5784 13.1754ZM38.7333 15.0708C38.4106 15.0155 38.0788 15.0753 37.7959 15.24C37.513 15.4046 37.2969 15.6634 37.1856 15.9713C37.0157 16.523 37.0634 17.1189 37.3189 17.6366C37.4824 18.0395 37.6858 18.4256 37.8706 18.82C38.2002 19.5236 38.5291 20.2276 38.8572 20.9318C38.9132 21.0522 38.9705 21.1384 39.1295 21.1344C39.5866 21.1237 40.0441 21.1344 40.5008 21.1233C40.5499 21.1206 40.5979 21.108 40.6419 21.0863C40.686 21.0645 40.7252 21.034 40.7571 20.9967C40.8308 20.8905 40.7678 20.7746 40.6683 20.7008C40.5158 20.5752 40.4012 20.4097 40.3373 20.2228C39.8815 19.2118 39.4178 18.2043 38.9603 17.1933C38.8199 16.8823 38.6875 16.567 38.5605 16.2498C38.5159 16.1719 38.4949 16.0827 38.5002 15.993C38.5055 15.9034 38.5368 15.8173 38.5902 15.7452C38.6688 15.6538 38.7231 15.5442 38.7481 15.4263C38.7731 15.3085 38.768 15.1862 38.7333 15.0708ZM14.6529 30.4491C15.1206 30.4884 15.5911 30.4224 16.0299 30.2559C16.3458 30.132 16.6248 29.9294 16.8402 29.6673C17.0557 29.4052 17.2005 29.0923 17.2608 28.7584C17.4169 28.1612 17.3948 27.5313 17.1973 26.9465C16.7935 25.847 15.8851 25.4601 14.6542 25.5614V26.1478C14.8387 26.1935 14.9986 26.3083 15.101 26.4685C15.2033 26.6287 15.2402 26.822 15.2041 27.0087C15.1868 27.675 15.1992 28.3413 15.1988 29.0045C15.2247 29.1811 15.1879 29.3611 15.0949 29.5134C15.0019 29.6657 14.8586 29.7806 14.6897 29.8383C14.6742 29.8436 14.6644 29.8681 14.6529 29.8827V30.4491ZM23.2302 23.1529C22.7256 23.0911 4.00505 23.1129 3.77006 23.1738C3.76409 23.2127 3.76171 23.2521 3.76296 23.2915C3.77055 23.32 3.7827 23.3472 3.79894 23.3719H23.2302V23.1529ZM44.1971 23.144H24.7343L24.7467 23.3763H44.1971V23.144ZM38.4765 20.9189C38.4121 20.608 38.3903 20.5915 38.1425 20.4623C38.0534 20.4137 37.9812 20.3392 37.9355 20.2486C37.6985 19.7431 37.4702 19.2336 37.2505 18.7201C37.2037 18.6279 37.1908 18.5222 37.214 18.4216C37.3029 18.2034 37.1852 18.0493 37.1101 17.8636C37.0667 17.8738 37.0242 17.8876 36.9831 17.9049C36.706 18.0329 36.4659 18.2289 36.285 18.4747C36.1041 18.7204 35.9883 19.0079 35.9484 19.3105C35.9085 19.613 35.9457 19.9208 36.0568 20.205C36.1678 20.4893 36.3489 20.7408 36.5833 20.9362C36.8567 21.1422 37.1905 21.2521 37.5328 21.249C37.8751 21.2459 38.2069 21.1298 38.4765 20.9189ZM21.7456 15.3911L21.6826 15.4031C21.6777 15.5013 21.6683 15.5995 21.6683 15.6981C21.6683 16.893 21.6683 18.0881 21.6683 19.2833C21.7023 19.5318 21.6662 19.7848 21.5642 20.0139C21.4622 20.243 21.2983 20.439 21.0909 20.58C21.0341 20.6086 20.989 20.6561 20.9633 20.7142C20.9376 20.7724 20.9329 20.8377 20.95 20.8989C20.9658 20.9656 21.0049 21.0245 21.0603 21.0647C21.1158 21.105 21.1838 21.124 21.2521 21.1184C21.5742 21.1242 21.8962 21.1295 22.2183 21.1304C22.3741 21.1339 22.53 21.1286 22.6851 21.1144C22.7246 21.1158 22.7638 21.1075 22.7994 21.0902C22.8349 21.073 22.8656 21.0472 22.8889 21.0153C22.9121 20.9834 22.9272 20.9462 22.9327 20.9071C22.9382 20.868 22.9341 20.8281 22.9206 20.791C22.896 20.6925 22.8375 20.6059 22.7553 20.5462C22.5605 20.424 22.4034 20.2501 22.3015 20.044C22.1995 19.8378 22.1567 19.6074 22.1778 19.3784C22.1818 18.4535 22.1596 17.5278 22.1867 16.6038C22.1402 16.1698 21.9888 15.7536 21.7456 15.3911ZM7.91325 33.014C7.55837 32.8942 7.25397 32.6588 7.04881 32.3454C6.77678 31.9518 6.57785 31.5125 6.46156 31.0483C6.44648 30.9459 6.41826 30.8459 6.3776 30.7507C6.33375 30.6731 6.26436 30.6132 6.18126 30.581C6.06354 30.5433 5.98447 30.6383 5.94449 30.7365C5.91053 30.8228 5.89305 30.9147 5.89296 31.0075C5.88882 31.7138 5.88882 32.4202 5.89296 33.1268C5.89177 33.2404 5.91337 33.3531 5.95649 33.4582C5.96791 33.4903 5.98755 33.5189 6.01344 33.5411C6.03934 33.5633 6.07059 33.5783 6.1041 33.5847C6.1376 33.5911 6.17219 33.5886 6.20443 33.5775C6.23667 33.5663 6.26544 33.547 6.28787 33.5213C6.31983 33.4941 6.34954 33.4644 6.37671 33.4324C6.56728 33.2219 6.66145 33.2037 6.91288 33.3263C7.08595 33.4189 7.26389 33.5021 7.44594 33.5755C7.59888 33.6171 7.75482 33.6468 7.91236 33.6643L7.91325 33.014ZM26.2593 17.4758L26.341 17.4523V17.1444C26.341 16.4284 26.3486 15.7123 26.3388 14.9962C26.3036 14.7536 26.3415 14.5059 26.4476 14.2849C26.5537 14.0639 26.7232 13.8794 26.9345 13.7551C26.943 13.7493 26.9509 13.7426 26.958 13.7351C27.0101 13.6999 27.0499 13.6493 27.0718 13.5903C27.0937 13.5314 27.0966 13.4671 27.0802 13.4064C27.0642 13.34 27.0269 13.2807 26.9739 13.2377C26.9209 13.1947 26.8552 13.1703 26.787 13.1683C26.7768 13.1676 26.7666 13.1676 26.7564 13.1683C26.3099 13.1683 25.8635 13.1647 25.4175 13.1683C25.2891 13.1683 25.1616 13.2011 25.1185 13.346C25.0897 13.4137 25.0848 13.4893 25.1049 13.5602C25.1249 13.6311 25.1686 13.6929 25.2287 13.7355C25.2705 13.7662 25.3113 13.7982 25.354 13.8275C25.4751 13.9087 25.5766 14.0159 25.6511 14.1413C25.7256 14.2667 25.7711 14.4072 25.7844 14.5524C25.8057 14.7377 25.8195 14.9243 25.8226 15.1108C25.8414 15.4632 25.8399 15.8163 25.8182 16.1685C25.7662 16.6833 26.0732 17.0529 26.2575 17.4758H26.2593ZM40.9503 33.002C40.6486 32.9042 40.3839 32.7167 40.1916 32.4645C39.9541 32.163 39.7693 31.8234 39.6452 31.4601C39.5586 31.2167 39.5 30.9631 39.4045 30.7236C39.3964 30.6818 39.3751 30.6437 39.3436 30.615C39.3121 30.5863 39.2722 30.5686 39.2297 30.5645C39.1873 30.5604 39.1447 30.5701 39.1083 30.5922C39.0719 30.6143 39.0437 30.6477 39.0278 30.6872C38.9685 30.7943 38.9379 30.9149 38.9389 31.0372C38.9309 31.7222 38.9345 32.4072 38.9358 33.0922C38.9269 33.1748 38.9342 33.2584 38.9571 33.3383C38.9931 33.4319 39.0562 33.5127 39.1384 33.5701C39.2428 33.6292 39.3258 33.5417 39.3991 33.4595C39.6279 33.2037 39.699 33.193 40.0068 33.3556C40.0894 33.4 40.1712 33.4444 40.2569 33.4804C40.4641 33.6068 40.7087 33.6575 40.949 33.6239L40.9503 33.002ZM8.58223 25.3531V26.0412C8.89217 26.1467 9.16824 26.3332 9.38182 26.5813C9.64674 26.9152 9.83385 27.304 9.92954 27.7194C9.94871 27.8424 9.98536 27.9621 10.0384 28.0748C10.0626 28.1115 10.095 28.1421 10.1331 28.1642C10.1712 28.1863 10.2139 28.1991 10.2578 28.2018C10.3057 28.1931 10.3513 28.1742 10.3914 28.1466C10.4315 28.1189 10.4653 28.0831 10.4906 28.0415C10.5295 27.9345 10.5446 27.8204 10.535 27.707C10.539 27.1361 10.5377 26.5658 10.535 25.9954C10.5402 25.891 10.5313 25.7865 10.5088 25.6845C10.489 25.5988 10.4402 25.5227 10.3706 25.469C10.3474 25.4567 10.322 25.4492 10.2958 25.4471C10.2696 25.4449 10.2433 25.4481 10.2184 25.4564C10.1934 25.4647 10.1705 25.478 10.1508 25.4954C10.1312 25.5128 10.1153 25.5341 10.1041 25.5579C10.0757 25.6023 10.0459 25.6436 10.0153 25.6862C10.0024 25.7119 9.98428 25.7345 9.96215 25.7528C9.94002 25.7711 9.91433 25.7845 9.88672 25.7923C9.85911 25.8001 9.83018 25.8021 9.80176 25.7982C9.77334 25.7942 9.74606 25.7844 9.72164 25.7693C9.63965 25.7249 9.55493 25.6857 9.468 25.652C9.19303 25.5552 8.90873 25.4628 8.58223 25.3531ZM14.9336 17.4136L14.978 17.4074C15.1483 16.6291 15.3183 15.8507 15.488 15.0722C15.6075 14.5209 15.7101 13.9616 16.2876 13.6716C16.3376 13.6417 16.3758 13.5956 16.3958 13.5409C16.4159 13.4863 16.4166 13.4264 16.3977 13.3713C16.3711 13.2349 16.268 13.1936 16.1512 13.1718C16.0997 13.1646 16.0477 13.1621 15.9957 13.1643C15.6421 13.1643 15.2888 13.1643 14.9358 13.1643C14.7772 13.1643 14.6089 13.1603 14.5542 13.3544C14.5326 13.4353 14.5399 13.5212 14.5749 13.5972C14.6098 13.6733 14.6703 13.7348 14.7457 13.7711C14.7977 13.8048 14.847 13.843 14.8958 13.8808C14.9664 13.9349 15.0216 14.0065 15.0561 14.0884C15.0906 14.1703 15.1032 14.2598 15.0926 14.3481C15.0843 14.462 15.0675 14.5752 15.0424 14.6866C14.9505 15.1228 14.8541 15.5577 14.7604 15.9935C14.705 16.2148 14.702 16.446 14.7515 16.6687C14.8141 16.9179 14.8732 17.1653 14.9336 17.4136ZM32.843 21.1153C32.8556 21.0658 32.8645 21.0155 32.8696 20.9647C32.8696 20.3223 32.8696 19.6802 32.8696 19.0381C32.8678 18.9656 32.859 18.8935 32.8434 18.8227C32.8239 18.7218 32.7675 18.6361 32.6582 18.6552C32.5731 18.6718 32.4954 18.7147 32.4361 18.7778C32.391 18.8468 32.3608 18.9244 32.3472 19.0057C32.2744 19.363 32.1025 19.6926 31.8511 19.9567C31.5997 20.2208 31.279 20.4088 30.9258 20.4991C30.8982 20.5058 30.876 20.5329 30.8542 20.5484V21.1153H32.843ZM41.6384 26.0269C41.7966 26.1136 41.9494 26.1815 42.0826 26.2735C42.5174 26.6019 42.8229 27.0726 42.9457 27.6035C42.9902 27.7523 43.0221 27.9055 43.0706 28.053C43.0758 28.0789 43.0862 28.1035 43.1012 28.1252C43.1162 28.147 43.1354 28.1655 43.1578 28.1796C43.1801 28.1938 43.2051 28.2032 43.2312 28.2074C43.2572 28.2116 43.2839 28.2104 43.3096 28.204C43.4033 28.175 43.4844 28.115 43.5397 28.0339C43.5775 27.9487 43.5928 27.8553 43.5841 27.7625C43.587 27.1489 43.587 26.5354 43.5841 25.9221C43.5873 25.8182 43.5758 25.7144 43.5499 25.6138C43.5412 25.5729 43.5207 25.5354 43.4908 25.506C43.461 25.4766 43.4232 25.4566 43.3822 25.4485C43.3411 25.4405 43.2985 25.4446 43.2598 25.4605C43.2211 25.4764 43.1879 25.5033 43.1643 25.5379C43.1368 25.5685 43.1177 25.6067 43.0932 25.64C42.9533 25.831 42.9297 25.8382 42.7085 25.7431C42.6321 25.7107 42.5588 25.6711 42.4864 25.6351C42.2244 25.5007 41.9366 25.4239 41.6424 25.4099L41.6384 26.0269ZM30.8263 13.8248C30.9151 13.8533 30.9928 13.8848 31.0728 13.9021C31.3018 13.9533 31.5149 14.0593 31.6938 14.2112C31.8727 14.363 32.0121 14.556 32.0998 14.7737C32.1893 14.9717 32.2673 15.1748 32.3335 15.3818C32.3752 15.5048 32.4396 15.5897 32.5751 15.5759C32.6066 15.5745 32.6376 15.5668 32.666 15.5531C32.6944 15.5395 32.7198 15.5202 32.7406 15.4964C32.7613 15.4727 32.7771 15.4449 32.7868 15.4149C32.7965 15.3849 32.8001 15.3532 32.7972 15.3218C32.7972 15.2699 32.8012 15.2179 32.8012 15.1659C32.8012 14.5844 32.8012 14.0025 32.8012 13.4206C32.797 13.3415 32.7889 13.2626 32.7768 13.1843H30.8263V13.8248ZM34.081 25.545H32.8154C32.8041 25.5807 32.7961 25.6175 32.7915 25.6547C32.7897 26.4013 32.7897 27.148 32.7915 27.8949C32.7853 27.967 32.7986 28.0394 32.8301 28.1045C32.8767 28.176 32.9558 28.2676 33.026 28.2724C33.0747 28.2731 33.123 28.2632 33.1675 28.2433C33.212 28.2235 33.2516 28.1941 33.2836 28.1574C33.3462 28.0515 33.3865 27.9339 33.4018 27.8118C33.4404 27.619 33.4462 27.42 33.4951 27.2299C33.558 26.8806 33.7247 26.5585 33.9735 26.3055C34.034 26.2395 34.0706 26.1552 34.0775 26.066C34.0926 25.903 34.081 25.7373 34.081 25.545ZM30.7996 17.3879C30.968 17.4642 31.1131 17.5837 31.2203 17.7343C31.3275 17.8849 31.3929 18.0611 31.4099 18.2452C31.4344 18.334 31.4646 18.4229 31.4948 18.5117C31.509 18.5621 31.5405 18.6059 31.5838 18.6354C31.6271 18.6648 31.6795 18.6779 31.7316 18.6725C31.8622 18.6681 31.9092 18.5797 31.9359 18.4744C31.952 18.4144 31.9606 18.3526 31.9617 18.2905C31.9617 17.4812 31.9652 16.6718 31.9617 15.8629C31.9617 15.635 31.8595 15.4897 31.7213 15.4795C31.5925 15.4702 31.4872 15.5595 31.4437 15.7994C31.419 15.9976 31.3477 16.1872 31.2358 16.3527C31.1238 16.5182 30.9744 16.655 30.7996 16.7518V17.3879ZM37.0728 25.533C37.0728 25.6827 37.0799 25.8057 37.0728 25.9279C37.06 26.0193 37.0707 26.1124 37.1037 26.1985C37.1367 26.2847 37.191 26.3611 37.2616 26.4205C37.3822 26.5353 37.4697 26.6805 37.5148 26.8407C37.6152 27.1872 37.6836 27.5435 37.7564 27.898C37.8102 28.1596 37.9146 28.2933 38.0825 28.2871C38.2504 28.2809 38.3446 28.1432 38.3455 27.8673C38.3472 27.1607 38.3472 26.4541 38.3455 25.7475C38.3411 25.6756 38.3328 25.604 38.3206 25.533H37.0728ZM23.9938 22.6278C23.9085 22.6239 23.8234 22.6377 23.7438 22.6684C23.6642 22.6991 23.5918 22.7461 23.5313 22.8063C23.4708 22.8665 23.4235 22.9386 23.3924 23.0181C23.3613 23.0976 23.347 23.1827 23.3506 23.2679C23.3557 23.4349 23.4257 23.5934 23.5459 23.7095C23.666 23.8257 23.8267 23.8904 23.9938 23.8898C24.1671 23.889 24.3332 23.8202 24.4562 23.6981C24.5793 23.5761 24.6495 23.4106 24.6517 23.2373C24.6439 23.0697 24.5706 22.9118 24.4475 22.7978C24.3245 22.6838 24.1615 22.6227 23.9938 22.6278ZM39.1046 15.1015C39.046 15.4924 39.0566 15.4853 39.2343 15.7447C39.3102 15.8665 39.3602 16.0026 39.3814 16.1445C39.3899 16.2705 39.3725 16.3968 39.3304 16.5158C39.2884 16.6348 39.2224 16.744 39.1366 16.8366L39.3227 17.2049C39.5242 17.044 39.6735 16.827 39.7518 16.5814C39.8302 16.3358 39.834 16.0725 39.7629 15.8247C39.729 15.6558 39.6499 15.4993 39.5339 15.3719C39.418 15.2446 39.2696 15.1511 39.1046 15.1015ZM40.1139 18.9355C40.3395 18.7069 40.4833 18.4102 40.523 18.0915C40.5411 17.898 40.535 17.7029 40.5048 17.5109C40.501 17.4825 40.4916 17.4551 40.4771 17.4303C40.4626 17.4055 40.4434 17.3839 40.4205 17.3666C40.3976 17.3493 40.3716 17.3367 40.3438 17.3295C40.316 17.3223 40.2871 17.3207 40.2587 17.3248C39.9553 17.3248 39.8256 17.4989 39.9397 17.7881C40.0287 17.9778 40.0436 18.1939 39.9815 18.394C39.9514 18.4877 39.9479 18.5879 39.9713 18.6834C39.9946 18.779 40.044 18.8663 40.1139 18.9355Z" fill="#1A171B"/>
</svg>
