<svg width="66" height="66" viewBox="0 0 66 66" fill="none" xmlns="http://www.w3.org/2000/svg">
<path d="M33 66C51.2254 66 66 51.2254 66 33C66 14.7746 51.2254 0 33 0C14.7746 0 0 14.7746 0 33C0 51.2254 14.7746 66 33 66Z" fill="white"/>
<path fill-rule="evenodd" clip-rule="evenodd" d="M62.1804 32.7245C62.1804 48.7126 49.2246 61.6684 33.2365 61.6684C17.2485 61.6684 4.2926 48.7126 4.2926 32.7245C4.2926 16.7364 17.2485 3.78058 33.2365 3.78058C49.1852 3.78058 62.1804 16.7364 62.1804 32.7245Z" fill="#ED9B33"/>
<path fill-rule="evenodd" clip-rule="evenodd" d="M25.0061 43.2779C25.518 43.2779 25.518 43.2779 25.9906 43.3173C26.2269 43.3961 26.4237 43.4748 26.66 43.5536C26.9751 43.5536 26.9751 43.5536 27.0932 43.593C27.0932 43.593 27.0932 43.6323 27.1326 43.6717C27.3295 43.7111 27.5264 43.7111 27.7627 43.7505C28.314 43.593 28.4321 43.6717 28.5896 43.1598C28.7078 43.081 28.7865 42.9235 28.7865 42.8054C27.7233 42.2147 26.4631 42.0178 25.2817 41.939C24.6123 42.0572 23.9822 42.1753 23.3522 42.451C22.6433 42.8841 21.6982 43.3567 21.1863 44.0261C21.1863 44.0655 21.3044 44.223 21.3832 44.3412C21.8557 44.4987 22.407 44.6168 22.919 44.735C23.3522 44.735 23.9035 44.8137 24.3366 44.6956C24.3366 44.6562 24.3366 44.6168 24.3366 44.5774C23.8641 44.2624 23.1946 44.1443 22.6433 44.0261C23.234 43.6323 23.8247 43.3567 24.5335 43.1992C24.7698 43.2385 24.7698 43.2385 25.0061 43.2779Z" fill="black"/>
<path fill-rule="evenodd" clip-rule="evenodd" d="M28.4716 21.3436C26.5813 21.6193 24.3761 22.3281 22.8009 23.3914C22.1315 23.8639 21.4226 24.2971 20.7138 24.7696C20.2412 25.0453 19.4143 25.6754 19.493 26.3054C18.8236 26.2267 18.9023 26.5023 18.4692 26.8961C17.0515 28.0775 16.0276 30.204 17.6028 31.7398C18.1541 32.2517 18.7842 32.803 19.4537 33.1181C20.2019 33.4725 21.3832 34.1813 22.0921 34.6145C21.8952 34.4964 20.2019 34.9295 19.9656 35.0083C19.7293 35.0871 19.1386 35.284 19.0599 35.5596C18.9811 35.8746 19.6112 35.6777 19.7687 35.6384C20.2806 35.4809 20.7926 35.4021 21.3045 35.3233C21.777 35.0871 22.3284 34.9689 22.8403 34.8902C23.5097 35.0477 23.8248 35.3627 24.3761 35.6384C23.5885 35.9534 22.8009 36.2291 22.0133 36.5047C21.6983 36.6229 21.3439 36.7016 21.0288 36.7804C20.8319 36.8591 20.32 36.9773 20.2019 37.1742C20.0443 37.4498 20.9107 37.1742 20.9894 37.1348C21.3439 37.056 21.6983 36.8985 22.0133 36.8591C22.7221 36.741 23.3916 36.3078 24.1398 36.2291C24.8093 35.8746 25.3606 36.0715 26.03 36.3078C27.2114 36.5441 28.5503 36.426 29.6136 35.8746C29.7317 35.7565 29.7317 35.7565 30.283 35.3627C30.4799 35.1264 30.4799 35.1264 31.1494 34.457C31.6613 34.2601 32.2126 34.0632 32.7245 33.9057C32.8427 33.9057 32.9214 33.8663 33.0396 33.8663C33.8665 33.5513 33.8665 33.5513 34.0241 33.5119C34.2997 33.3937 35.2054 33.1968 35.2842 33.1575C35.363 32.9999 35.4023 32.8424 35.4811 32.7243C32.8033 32.9606 30.2436 33.9057 27.7233 34.772C27.5264 34.8114 27.172 35.0477 26.7389 34.9689C25.8331 34.9295 25.0849 34.5357 25.0062 34.4964C25.0062 34.457 25.0062 34.3782 25.0062 34.3388C27.0539 33.7482 29.7317 32.9212 31.8188 32.488C32.6064 32.1336 33.6696 32.0155 34.536 31.8579C34.6541 31.661 34.851 31.6217 34.9298 31.346C34.4966 31.346 34.0634 31.3854 33.5909 31.3854C31.11 31.8579 29.456 32.2911 29.3773 32.2911C29.0229 31.7398 28.9441 31.5429 28.3534 31.3066C27.4477 31.2279 27.0145 31.7398 26.4632 32.3305C26.3451 32.4093 26.1088 32.5668 26.1088 32.6849C26.4632 32.8424 26.6995 32.5274 26.8964 32.2911C27.0145 32.2124 27.0145 32.2124 27.684 31.6217C28.2747 31.5823 28.3928 31.9761 28.5897 32.488C28.5503 32.5274 29.3773 32.2911 27.172 32.9606C26.4238 33.1575 24.8093 33.63 24.061 33.8663C22.3284 33.3937 21.6589 32.6849 20.0443 31.5823C19.8081 31.346 19.6112 31.1491 19.4537 30.7553C19.0992 29.889 20.1625 28.3138 20.5957 27.8412C20.9501 27.4081 21.2651 26.8961 21.6589 26.5023C21.8558 26.3054 22.1315 26.2267 22.3677 26.0692C22.5252 25.951 22.6828 25.636 22.8403 25.5572C22.9978 25.4785 23.1159 25.3997 23.2341 25.2816C23.4704 24.8484 23.9429 24.6121 24.3761 24.2971C24.6124 24.1789 24.7305 24.0608 24.8486 24.0214C25.3606 23.5489 26.03 23.3126 26.6207 22.9188C26.7389 22.9188 26.857 22.9188 26.9751 22.9188C27.172 22.84 27.6052 22.6038 27.684 22.4462C27.9596 22.4069 28.2353 22.2887 28.5503 22.21C29.1804 22.21 29.8498 22.21 30.5193 22.21C30.6768 22.1706 30.7949 22.1706 30.9525 22.1706C30.9918 22.4856 31.0706 22.7613 31.1887 23.0369C31.8188 23.0369 31.6613 22.2887 32.0157 22.1312C32.1338 21.9737 32.2126 21.8556 32.3307 21.698C32.3307 21.5799 32.4095 21.3436 32.4095 21.3436C32.4489 20.9498 32.4489 20.9498 32.4883 19.9653C32.8033 19.8866 33.079 19.7291 33.394 19.5715C33.5515 19.2959 33.709 19.2171 34.0241 19.0596V19.0202C33.7878 19.0202 33.5909 18.9809 33.3546 18.9809C32.9214 18.8627 32.4883 18.7446 32.0945 18.6658C32.0157 18.5871 32.0157 18.5871 31.9763 18.5477C31.9763 18.5083 31.5825 17.7995 31.4644 17.7601C31.5431 17.6419 31.4644 17.4844 31.425 17.3663C31.3463 17.3269 31.3463 17.3663 31.3069 17.2875C31.3463 17.2875 31.3463 17.2875 31.3856 17.2088C30.9525 16.5393 30.9525 15.7517 30.8343 14.9248C30.7949 14.1372 30.7949 14.1372 30.7949 13.3102C30.8737 12.877 30.8737 12.877 30.8737 12.3257C31.0312 11.8925 31.2281 11.4987 31.6219 11.2231C31.6219 11.1443 31.6613 11.105 31.6613 11.0262C31.9369 11.1837 32.252 11.0656 32.5276 10.9868C32.7639 10.9474 33.0002 10.9474 33.2365 10.9081C33.9453 10.5143 34.4179 12.247 34.6147 12.6801C34.8116 12.9952 35.0873 13.7434 35.5599 13.7434C35.7174 13.4283 35.8749 13.1527 36.2293 12.6014C36.6231 11.105 34.6541 10.0811 33.4334 9.76605C33.0789 9.76605 32.6852 9.80543 32.3307 9.92357C31.9369 10.0417 31.7007 10.3174 31.3856 10.5143C31.1887 10.6324 31.1887 10.5536 30.9918 10.5536C30.8343 10.5536 30.5193 10.5536 30.4011 10.6718C30.2042 10.8293 30.0861 11.0656 29.8892 11.2625C29.4954 11.9713 29.141 12.6408 28.8653 13.389C28.7866 13.7828 28.6684 14.1372 28.5897 14.531C28.4715 15.3186 28.5109 16.0668 28.5503 16.8937C28.6684 17.3269 28.6684 17.3269 28.8653 17.9964C29.1804 18.5871 29.456 18.9809 29.9286 19.4534C30.2436 19.6503 30.2436 19.6503 30.7949 19.8866C30.7949 19.926 30.6768 21.1861 30.6768 21.4618C29.8105 21.3042 29.2591 21.3436 28.4716 21.3436ZM33.6696 39.1825C33.6303 39.1825 33.5909 39.1431 33.5515 39.1431C33.0002 39.0644 32.0551 38.9462 31.9763 38.198C32.0551 38.0011 31.9369 37.6861 31.9369 37.4892C32.9608 37.568 33.9847 37.4498 35.0085 37.4498C35.1267 37.4892 35.1267 37.4892 35.8355 37.568C35.5205 38.3949 34.6147 39.025 33.6696 39.1825ZM50.3665 45.1682C50.209 45.0107 50.209 45.0107 49.9334 44.6169C49.8152 44.5381 49.4214 44.2231 47.8856 43.0023C47.5706 42.8842 47.3343 42.451 46.9799 42.2935C46.4286 41.7422 45.641 41.3878 45.1291 40.7971C45.0503 40.7577 45.0109 40.7183 44.9715 40.6396C44.0264 39.9307 43.0813 39.1431 42.0575 38.5525C41.8606 38.3162 41.388 38.198 41.1517 38.0011V37.9618C41.3093 37.883 41.4274 37.8042 41.6243 37.8042C41.5849 37.7649 41.5849 37.7649 41.6243 37.7255C41.6637 37.7255 41.7424 37.6861 41.7818 37.6861C42.1756 37.4104 42.5694 37.2923 43.0026 37.1348C43.5145 37.2136 44.0658 36.8985 44.4596 36.5835C44.814 36.3866 45.0897 36.2291 45.326 35.9534C45.956 35.599 46.6649 35.2052 46.8224 34.457C46.9405 33.4725 46.468 32.5274 46.3892 31.5429C46.1923 31.1097 46.3105 30.5978 46.1136 30.204C46.1136 29.8102 45.8379 29.4164 45.8773 29.0226C45.7591 28.6682 45.6016 28.1563 45.4047 27.8412C45.326 27.4081 45.0503 27.0143 44.814 26.6205C44.6959 26.1085 44.3021 25.5966 44.0658 25.124C43.8295 24.8484 43.672 24.5334 43.357 24.2971C43.2782 24.1002 43.042 23.982 43.0026 23.7458C42.4906 23.352 42.0575 22.84 41.5062 22.4462C41.1517 22.2887 41.1517 22.2887 40.1673 21.8162C39.6159 21.7374 39.104 21.6587 38.5527 21.5799C37.8439 21.5405 37.0563 21.383 36.3474 21.5799C36.3474 21.6587 36.3474 21.7374 36.3474 21.8162C36.4656 21.9343 36.6231 22.0131 36.7412 22.0918C37.5682 22.2493 38.3558 22.4856 39.1828 22.4856C40.3642 22.6431 41.0336 24.1789 41.6243 25.0453C42.4513 27.3293 42.4513 27.3293 42.53 27.4081C43.0813 29.1408 43.5145 30.9128 43.9477 32.6849C44.0264 33.315 43.7114 33.8663 43.3964 34.3782C42.53 35.1658 41.5062 35.6777 40.5217 36.3472C40.4035 36.3866 40.0885 36.6229 39.104 37.1742C38.1589 37.6467 38.1589 37.6467 38.0014 37.6861C37.7651 37.7649 37.5682 37.9224 37.3319 38.0011C37.3319 37.9618 37.2926 37.9618 37.2926 37.9224C37.4501 37.568 37.6076 37.2923 37.6863 36.9379C37.4501 36.8591 37.2532 36.741 37.0957 36.5441C36.3081 36.4653 35.4811 36.426 34.6935 36.3866C33.9059 36.3866 33.0789 36.3866 32.2914 36.3866C31.6219 36.426 31.6219 36.426 31.5431 36.4653C31.425 36.426 31.425 36.3078 31.2675 36.2684C30.8343 35.8353 30.7162 35.8746 30.2436 36.0322C30.2436 36.5047 30.2436 37.0167 30.2436 37.5286C30.3224 38.3162 30.4011 38.5525 30.8343 39.1825C31.2675 39.6551 31.74 39.8914 32.3307 40.1276C32.9214 40.2458 33.9847 40.5214 34.4572 40.1276C34.7329 40.0489 35.0479 39.9701 35.3236 39.852C35.5992 39.6945 35.9143 39.4976 36.2293 39.4582C36.2293 39.4976 36.2293 39.4976 36.1899 39.5763C36.4262 39.4976 36.4262 39.4976 36.7806 39.4582C37.1744 39.34 38.6708 38.5918 39.1434 38.8281C39.5372 38.6312 39.5372 38.6312 39.5766 38.5918C39.7341 38.6312 40.0097 38.9069 40.0885 39.1038C40.4429 39.3007 40.7973 39.6551 41.1124 39.9701C43.0026 41.5453 44.9322 43.1205 46.8618 44.6957C46.8618 44.6957 46.9011 44.6957 46.9405 44.6957C46.8224 44.5775 46.7042 44.42 46.6255 44.3019C47.1768 44.6957 47.6887 45.0894 48.2007 45.4832C48.3976 45.7195 48.3976 45.7195 48.3976 45.7195C48.2794 45.6801 48.2794 45.6408 48.1613 45.6408C48.0432 45.4439 47.1768 44.7744 46.9799 44.7744C47.5706 45.2076 48.0825 45.6408 48.5945 46.1527C48.5945 46.1133 48.5945 46.0739 48.6338 46.0346C48.6732 46.0739 48.6732 46.0739 48.7126 46.0739C48.7126 46.0346 48.6732 46.0346 48.6732 45.9952C48.752 45.9558 49.1458 46.2708 49.067 46.4677C48.9883 46.4677 48.9883 46.4677 48.9489 46.4284C49.1064 46.704 48.6732 47.4522 48.3976 47.6097C47.7281 47.8066 46.9799 47.7673 46.2711 47.7673C44.6959 47.6885 43.0813 47.5704 41.5455 47.2553C40.246 46.8221 38.9465 46.4283 37.6076 46.0739C37.0563 45.9952 36.5443 45.877 35.993 45.7983C35.9537 45.7589 35.9537 45.7589 35.993 45.7195C36.5443 45.4439 37.1744 45.1682 37.8045 45.0107C37.8045 44.9713 37.7651 44.9319 37.7651 44.9319C38.2377 44.8532 38.7496 44.6169 39.2221 44.6563C39.8522 44.3806 40.9155 44.6957 41.5062 44.8138C42.3331 44.8532 43.1207 45.4439 43.9083 45.2863C43.8689 44.7744 43.2389 44.2625 42.8451 43.9081C42.4513 43.6718 42.0181 43.4355 41.6243 43.1992C39.0252 41.9785 36.0718 42.9236 33.4334 43.5143C32.5276 43.8293 31.6219 44.1443 30.7162 44.4988C28.9441 45.247 27.1326 45.7195 25.3212 46.2315C24.7305 46.2708 24.2579 46.389 23.7066 46.5465C23.3916 46.5859 23.3916 46.5859 19.7687 47.4128C19.0992 47.5704 18.3116 47.8066 17.6422 47.7673C17.6028 46.9403 18.351 46.1921 18.6267 45.4439C18.9417 45.1288 19.0992 44.6169 19.3355 44.2625C19.6899 43.7112 20.0837 43.2386 20.5169 42.7267C21.0682 42.0572 21.5014 41.2303 22.1708 40.7183C22.7221 40.2458 23.3128 39.7732 23.746 39.1825C23.9823 38.8675 24.2186 38.5918 24.4548 38.3162C24.573 38.1587 24.888 37.6073 25.0849 37.5286C25.0849 37.3317 25.0062 37.2923 24.888 37.1348C24.8486 37.1348 24.7699 37.1348 24.7305 37.1348C23.9429 37.6467 23.1553 38.1193 22.4465 38.71C22.3677 38.7493 22.2496 38.8281 22.1708 38.8675C22.1315 38.9069 20.8319 39.9307 20.5563 39.9307C19.6505 40.6789 18.8236 41.3878 17.9572 42.2147C17.9572 42.2935 17.8391 42.3723 16.9334 43.3568C16.8546 43.4749 16.8546 43.4749 16.5789 43.8293C15.9883 44.6957 15.3582 45.6014 15.1613 46.6646C15.0825 47.1372 15.0431 47.8066 15.3188 48.2398C15.5157 48.5548 15.8307 48.7911 16.1064 49.0668C16.3427 49.3031 16.5789 49.5393 16.8152 49.7756C17.0909 50.0119 17.3272 50.2088 17.6422 50.4057C17.9572 50.6026 18.2723 50.8388 18.6267 50.957C18.863 51.0357 19.2568 51.272 19.5324 51.2326C20.1231 51.1933 20.1231 51.1539 20.3988 51.1539C20.5957 51.0751 20.7532 50.9964 20.9501 50.9176C21.5014 50.6813 22.0527 50.3269 22.604 50.13C22.7615 50.2875 23.5097 49.8544 23.7854 49.7362C24.1004 49.6181 24.3761 49.3031 24.6911 49.2243C24.8093 49.1849 25.0062 49.2637 25.2031 49.1849C25.4 49.1455 25.5575 49.1455 25.715 49.1062C26.0694 49.0274 26.3451 48.673 26.7389 48.5942C26.9358 48.5548 27.172 48.5548 27.4477 48.4367C27.8021 48.3186 28.1959 48.2398 28.5503 48.0823C28.826 48.1217 29.1016 47.8854 29.2985 47.7673C29.6136 47.5704 29.968 47.6097 30.3224 47.4522C30.4011 47.4128 30.4799 47.2947 30.598 47.2553C30.6768 47.2159 30.7162 47.2947 30.7556 47.2553C30.9131 47.1766 30.9525 47.1372 31.11 47.0978C31.1494 47.0978 31.2281 47.1372 31.2675 47.1372C31.6613 47.0584 32.0551 46.9009 32.4489 46.8221C32.8427 46.7434 33.1971 47.019 33.4727 47.2159C34.2603 47.4522 35.0873 47.6885 35.8749 47.9641C36.82 48.161 37.8439 48.5548 38.789 48.5548C38.9465 48.6336 38.9465 48.6336 39.5372 48.7517C40.6398 49.1455 41.7818 49.4606 42.9238 49.7756C43.7508 49.9331 44.5384 50.0119 45.3653 50.0906C45.7198 50.13 46.1529 50.0906 46.5074 50.13C46.8224 50.1694 47.0587 50.2875 47.3737 50.2088C47.8069 50.13 48.2007 50.1694 48.6338 50.13C48.9095 50.0906 49.1852 50.0906 49.4214 50.0119C49.8152 49.8937 50.2484 49.7362 50.5241 49.4212C50.7603 49.1455 50.8391 48.8305 50.8391 48.4761C50.8391 48.2792 50.6422 47.2159 50.7997 47.0978C50.8391 47.1372 50.8785 47.1766 50.8785 47.2553H50.9572C51.036 47.0978 50.9179 47.0584 50.8785 46.9009C50.8391 46.704 50.9572 46.5465 50.9966 46.389C50.9966 46.1921 50.9179 45.9952 50.9966 45.7983C50.9572 45.7983 50.9572 45.7589 50.9179 45.7589C50.9179 45.7195 50.9179 45.6801 50.9179 45.6801C50.8785 45.6801 50.8391 45.6408 50.8391 45.6408C50.8391 45.6014 50.8391 45.6014 50.8391 45.562C50.6422 45.6014 50.6028 45.2863 50.3665 45.1682Z" fill="black"/>
<path fill-rule="evenodd" clip-rule="evenodd" d="M45.9558 56.0764C43.9869 57.1003 41.4666 58.4786 39.3007 58.9905C38.8675 59.0693 38.5919 58.9512 38.1981 58.9905C37.8437 59.0299 37.9224 59.6994 37.4105 59.1874C36.8986 59.3843 36.5048 59.148 35.9928 59.1874C34.2995 59.3056 32.6849 59.66 30.9522 59.66C30.5191 59.6206 30.0859 59.5812 29.6527 59.5812C29.2589 59.5025 28.8258 59.5418 28.432 59.5418C28.1169 59.5418 27.8019 59.4631 27.4869 59.4631C27.3687 59.4631 27.29 59.5418 27.1718 59.4631C27.0931 59.4237 27.1324 59.2662 27.0143 59.1874C26.8962 59.148 26.6599 59.1874 26.5024 59.1874C26.3055 59.148 26.1086 59.1087 25.9117 59.0693C25.7148 59.0299 25.5573 58.9511 25.3997 58.8724C25.321 58.833 24.7697 58.9512 24.7697 58.9905C24.6122 58.6361 23.1157 58.2029 22.7613 58.0454C20.9105 57.2972 19.9654 56.3521 18.3902 55.2101C17.8389 54.8163 17.327 54.7375 16.815 54.3831C16.8544 54.0681 16.7363 53.7137 16.7756 53.3593C16.1456 53.6743 14.2947 51.9416 13.7828 51.3509C12.7589 50.1301 11.8138 49.0275 11.2625 47.5311C11.2231 47.4523 11.2231 47.3736 11.1838 47.2948C10.9081 46.4679 10.5143 44.8533 9.64795 44.6958C10.3174 44.8139 8.66347 41.7029 8.58471 41.5454C7.91526 40.2459 7.67898 38.3951 7.6396 36.9774C7.56084 37.0168 7.48208 37.0168 7.36394 37.0562C7.04891 36.623 6.41884 34.9297 7.12767 34.654C7.00953 34.2602 6.97015 33.827 7.04891 33.4333C7.12767 33.3939 7.24581 33.4333 7.32456 33.3939C7.36394 32.9213 7.12767 32.5669 7.04891 32.1337C6.73387 30.5192 7.00953 28.7471 7.2458 27.1719C7.36394 26.3056 7.91526 25.4786 8.07277 24.6123C8.26967 24.1791 8.38781 23.7459 8.54533 23.3127C8.89974 22.5251 9.29354 21.7769 9.64795 20.9893C9.96299 20.6743 10.3962 19.8867 10.5143 19.4929C10.9475 18.4691 11.8138 17.7602 12.4045 16.8151C12.4833 16.7364 12.6802 16.4213 12.7983 16.4213C12.9558 16.0275 13.1527 15.87 13.4284 15.5156L13.704 15.3581C13.8616 15.043 14.216 14.4523 14.4916 14.2555C14.8067 13.9404 15.2005 13.6648 15.5155 13.3497H15.5549C15.5549 13.1134 16.2243 12.6409 16.5 12.5228C16.5 12.4834 16.5 12.4834 16.5394 12.444C16.5394 12.444 16.5787 12.444 16.6181 12.444C16.6181 12.4046 16.6181 12.4046 16.6181 12.3652C16.6575 12.3259 17.4451 11.617 17.7207 11.5383C17.7207 11.4595 18.1933 11.2232 18.2721 11.1445C18.2721 11.1051 18.2721 11.1051 18.2721 11.0657C18.9415 10.6325 18.9415 10.6325 18.9809 10.6325C18.9809 10.5932 18.9809 10.5932 18.9809 10.5538C19.4141 10.3963 19.7685 10.1206 20.1229 9.88433C20.2804 9.76619 21.2649 9.37239 21.2649 9.21488V9.1755C21.8162 8.89984 22.3281 8.62419 22.8795 8.34853V8.30915C22.9582 8.26977 23.037 8.23039 23.1551 8.23039V8.19101C24.0608 7.91535 24.8878 7.40342 25.7935 7.20652C25.8329 7.12776 25.9117 7.12776 25.9904 7.08839C25.9904 7.04901 25.9904 7.04901 25.9904 7.00963C26.0298 7.00963 26.0692 7.00963 26.1086 7.00963C26.1086 7.00963 26.1086 7.00963 26.148 7.04901C26.3055 7.00963 26.5417 6.93087 26.6993 6.81273C26.778 6.85211 26.9355 6.81273 26.9749 6.73397C27.6444 6.69459 28.3138 6.45831 29.0227 6.41893C29.0227 6.37955 29.0227 6.37955 29.0227 6.37955C30.2828 6.3008 30.2828 6.3008 30.4403 6.26142C31.4642 6.06452 32.6456 5.907 33.6694 5.82824C33.9845 5.82824 34.1026 5.907 34.3783 5.94638C34.8902 6.02514 35.4021 5.98576 35.8747 6.02514C36.3866 6.06452 36.8592 5.98576 37.3711 6.02514V6.1039C37.4892 6.1039 37.6468 6.14328 37.8043 6.18266C38.1193 6.3008 38.5919 6.41893 38.9463 6.3008C39.0644 6.26142 39.1038 6.1039 39.2613 6.14328C39.4188 6.14328 39.4188 6.34018 39.537 6.37955C39.852 6.53707 40.2064 6.26142 40.4821 6.69459C40.4033 6.53707 40.994 6.77335 40.994 6.77335C41.2303 6.85211 41.506 6.93087 41.7422 7.00963C42.3329 7.16714 43.0417 7.87597 43.7112 7.6397C44.0656 7.52156 43.3174 7.32466 43.1993 7.20652C43.7112 7.20652 44.1838 7.52156 44.6563 7.71846C44.8532 7.79722 45.0501 7.75784 45.2864 7.8366C45.8771 8.03349 46.2315 8.66356 46.9403 8.46667C46.7434 8.30915 46.2315 7.95473 46.7434 7.95473C46.9403 7.95473 47.216 8.11225 47.4129 8.19101C47.7673 8.30915 48.4761 8.82108 48.8305 8.70294C48.7124 8.23039 48.0429 8.07287 47.8067 7.71846C48.1611 7.36404 48.7124 7.95473 49.0668 7.79722C49.1456 7.75784 48.4761 7.28528 48.4367 7.2459C48.0823 7.00963 47.6885 6.81273 47.2947 6.61583C46.5465 6.22204 45.7589 5.82824 44.8926 5.63134C44.6957 5.55259 44.4594 5.51321 44.3019 5.47383C44.3019 5.47383 44.3413 5.47383 44.3413 5.43445C42.9236 4.96189 42.7661 4.84376 42.4117 4.72562C42.3329 4.64686 42.1754 4.5681 41.9785 4.52872C41.1909 3.93803 40.2852 4.05617 38.9857 3.66237C38.0406 3.38671 37.1742 3.30796 36.1897 3.26858C35.4415 3.18982 34.6539 3.2292 33.827 3.15044C33.4725 3.11106 33.1181 3.18982 32.7637 3.18982C32.488 3.18982 32.0943 2.99292 31.8186 3.07168C31.7005 3.11106 31.8186 3.34734 31.6217 3.30796C31.5429 3.30796 31.5429 3.11106 31.5036 3.07168C31.4248 3.0323 31.3854 2.99292 31.346 2.99292C31.2279 2.99292 31.2673 3.15044 31.0704 3.2292C30.8341 3.34734 30.2828 3.50485 30.0071 3.54423C29.7315 3.58361 29.3771 3.42609 29.1014 3.42609C29.1014 3.42609 28.3532 3.46547 28.5501 3.66237C28.4713 3.58361 28.3532 3.54423 28.3138 3.46547C28.1957 3.58361 28.1169 3.74113 27.9988 3.81989C27.8806 3.66237 27.7625 3.66237 27.5656 3.66237C27.4475 3.66237 27.3293 3.66237 27.1718 3.70175C25.9511 3.93803 24.7303 4.21368 23.5095 4.60748C22.9976 4.765 22.4857 4.96189 21.9343 5.08003C21.9343 5.08003 21.6587 5.19817 21.6981 5.19817C21.5012 5.31631 21.3437 5.74948 21.068 5.47383C20.9892 5.63134 20.8317 5.67072 20.6742 5.67072C20.6742 5.74948 20.5954 5.78886 20.5561 5.86762C20.1623 5.55259 18.6659 6.69459 18.3508 6.89149C16.8938 7.79722 15.6336 8.89984 14.216 9.80557C14.0978 9.88433 13.9797 9.92371 13.9009 10.0418C13.8616 10.1206 13.9403 10.2781 13.8616 10.3569C13.7434 10.4356 13.6647 10.1994 13.5465 10.2387C13.4284 10.2781 13.389 10.3963 13.3102 10.4356C13.074 10.5932 12.9558 10.7901 12.7589 10.987C12.562 11.1839 10.7112 13.271 10.6324 13.1922C11.1444 13.8617 10.1205 14.5705 9.72671 15.0037C9.52982 15.2399 9.25416 15.6731 9.01788 15.8306C8.7816 15.9881 8.62409 15.7125 8.34843 16.0275C7.08829 17.6815 6.1038 19.5323 5.23745 21.4225C4.41048 23.234 3.85917 25.1636 3.54413 27.0932C3.38662 28.0776 3.26848 29.1015 3.2291 30.086C3.18972 30.5979 3.2291 31.1099 3.18972 31.5824C3.15034 31.9368 3.2291 32.2519 3.2291 32.6063C3.2291 32.8426 3.15034 32.9607 3.26848 33.2364C3.50475 33.1576 3.46538 33.5908 3.50475 33.7483C3.54413 33.9058 3.54413 34.0239 3.50475 34.1421C3.426 34.1421 3.30786 34.1421 3.2291 34.1027C3.426 35.0084 3.07158 35.166 2.95344 35.9535C2.91406 36.0717 2.91406 36.1898 2.91406 36.308C2.91406 36.8593 3.11096 37.45 3.2291 38.0013C3.30786 37.9225 3.46538 37.8044 3.54413 37.7256C3.15034 38.1194 4.21359 41.0335 4.3711 41.506C4.60738 42.3724 4.84366 43.2387 5.11931 44.0657C5.47373 45.129 6.02504 46.3103 6.61573 47.2555C6.85201 47.6492 7.08829 48.043 7.32456 48.4762C7.79712 49.2638 8.30905 50.012 8.7816 50.7602C9.13602 51.3115 9.56919 51.8235 10.0417 52.2566C10.4749 52.6504 10.8293 53.1624 11.2231 53.5562C12.5227 54.8163 13.8222 56.0371 15.2398 57.1791C15.9487 57.7304 16.7756 58.1636 17.4451 58.6755C17.9176 59.0299 18.2721 59.6206 18.8234 59.8963C19.2959 60.1325 19.5716 59.8175 19.9654 59.975C20.241 60.0932 20.2804 60.4476 20.5954 60.5657C21.383 60.9201 22.1706 61.3533 22.9976 61.5502C23.7458 61.7077 24.6122 61.629 25.3604 61.9046C27.5656 62.8103 30.0465 62.9679 32.4487 62.9679H32.6849C33.5513 62.9679 34.4176 62.9285 35.284 62.9285C35.5203 62.9285 35.7172 62.9285 35.9534 62.8891C36.111 62.8891 36.3866 62.771 36.5048 62.8497C36.6229 62.7316 36.8986 62.771 37.0561 62.7316C37.3711 62.6528 37.6861 62.6528 38.0012 62.6134C38.3162 62.5741 38.5919 62.3378 38.9069 62.2984C38.9069 62.259 38.9069 62.259 38.9463 62.2196C39.025 62.2196 39.0644 62.259 39.1432 62.259C39.0644 62.2984 39.0644 62.2984 38.9857 62.3772C39.0644 62.3772 39.0644 62.3772 39.1432 62.2984C39.1826 62.2984 39.1826 62.3378 39.2219 62.3772C39.2219 62.3378 39.2613 62.3378 39.3007 62.3378C39.4976 62.3378 39.852 62.0621 40.0095 61.9834C40.0095 62.0227 40.0489 62.0621 40.0489 62.1015C40.167 62.0227 40.2852 61.944 40.4427 61.8652C40.6396 61.7471 40.7184 61.8259 40.9153 61.7865C41.0334 61.7865 41.1122 61.629 41.2303 61.629C41.4666 61.5502 41.6241 61.5502 41.821 61.4321C41.9785 61.3139 42.136 61.1564 42.4117 61.1958C42.5692 61.1958 42.648 61.3139 42.8449 61.2745C43.278 61.1564 43.7112 60.9595 44.1838 60.9595C44.2231 60.802 44.3019 60.802 44.4594 60.7626L44.42 60.7232C44.4594 60.6838 44.4594 60.6838 44.7351 60.6838C44.7744 60.6445 44.7744 60.6445 44.8926 60.5657C44.8926 60.5657 44.932 60.6051 44.932 60.6445C45.0501 60.5657 45.1289 60.4869 45.247 60.4476C45.4045 60.4082 45.562 60.4082 45.6802 60.2901C45.7196 60.2113 45.9952 60.1719 46.074 60.1325C46.1921 60.0538 46.3102 59.9356 46.4284 59.8569C46.7828 59.6206 47.1766 59.148 47.6491 59.1874C47.8854 58.9905 48.0823 58.5967 48.4367 58.5967C48.5549 58.5967 48.5549 58.7149 48.6336 58.7149C48.8699 58.7543 49.1456 58.4392 49.3031 58.3211C49.6575 58.0454 50.1301 57.9273 50.4451 57.6123C51.5083 56.6278 52.4928 55.9977 53.4773 54.9344C54.6981 53.8318 55.8007 52.4929 56.7064 51.154C57.0608 50.5633 57.7697 50.0514 58.1241 49.4607C58.1241 49.2638 58.1241 49.185 58.1241 48.9881C58.9511 47.8068 59.6205 46.7435 60.3293 45.4834C60.8807 44.2232 61.3926 42.333 61.9439 41.1123C62.062 40.7578 62.1408 40.3247 62.3377 40.0096C62.4165 39.5765 62.4952 39.1039 62.4952 38.6707C62.4952 38.4344 62.574 38.1588 62.6527 37.9225C62.7315 37.6075 62.7709 37.2531 62.8102 36.8986C62.889 36.1898 62.9678 35.481 63.0071 34.7722C62.9678 34.0239 63.1647 33.512 63.1253 32.7638C63.0859 32.2519 62.7709 31.7399 62.7315 31.2674C62.6921 30.6767 62.9284 30.1254 62.8102 29.4953H62.8496C62.8496 29.3772 62.8102 29.259 62.8102 29.1409C62.6527 28.0776 62.2196 27.0932 62.1408 26.0299C62.062 24.9273 61.4713 24.0216 61.1957 22.9583C60.9988 22.1707 60.7625 21.3438 60.4081 20.6349C60.0931 20.0049 59.6599 19.4535 59.463 18.7841C59.3842 18.5084 59.2267 17.6815 58.9904 17.5239C58.9904 17.6421 58.9904 17.7602 58.9904 17.8784C58.4785 17.7208 58.4391 16.9726 58.2816 16.5788C58.0453 16.0275 57.3365 15.7912 57.0608 15.2399C56.7064 14.413 55.9582 13.7041 55.4069 13.0347C55.1313 12.759 54.6981 12.5228 54.4618 12.2077C54.0286 11.9714 53.9892 11.4595 53.5561 11.3414C53.4773 11.2626 53.4379 11.1839 53.3986 11.0657C53.3592 11.0657 53.3592 11.0657 53.3986 11.1051C53.3592 11.1051 53.241 10.987 53.2017 10.9476C53.2804 10.987 53.4379 11.302 53.4773 11.3807C53.1623 11.302 53.0835 10.9082 52.7685 10.8688C52.8079 10.987 53.1229 11.4989 53.2017 11.5776C52.6897 11.2232 52.1778 10.8294 51.6659 10.4356C51.4296 10.2387 50.957 9.64805 50.642 9.68743C50.6814 9.96309 51.0752 10.2387 51.2721 10.4356C51.3508 10.5144 52.099 11.3414 52.1384 11.3414C51.9021 11.4595 51.7052 11.1051 51.5477 10.987C51.5083 10.9476 50.8389 10.5538 50.8783 10.7507C50.9176 10.9476 51.1145 11.0657 51.2721 11.1839C51.6659 11.4595 52.0203 11.8139 52.4141 12.129C52.5716 12.2865 53.2804 12.8378 53.241 13.0741C53.241 13.0741 53.241 13.1134 53.241 13.1528C53.0048 13.1528 52.7291 12.759 52.5716 12.6015C52.3747 12.444 52.1384 12.2865 51.9021 12.1683C51.6659 12.0502 51.1933 11.3414 50.9176 11.5383C51.0358 11.9714 51.6659 12.2077 51.9809 12.4834C52.2565 12.7197 52.4534 12.9953 52.6503 13.271C52.8079 13.4679 52.9654 13.6648 53.2017 13.8617C53.4379 14.0586 53.5167 14.2555 53.7136 14.4523C53.6348 14.4523 53.5167 14.413 53.4379 14.3736C53.2804 14.5705 53.7136 14.6886 53.7924 14.7674C54.2649 15.0824 54.5406 15.7125 54.8162 16.185C54.9344 16.3819 54.9344 16.5788 55.0525 16.7757C55.1313 16.8939 55.21 16.9726 55.2494 17.0908C55.2888 17.2089 55.2888 17.327 55.3281 17.4452C55.5644 17.9571 55.9188 18.2328 56.2339 18.7053C56.6277 19.296 56.8246 20.0442 57.0608 20.7137C57.6122 22.2495 58.1635 23.7853 58.5573 25.3605C58.7542 26.1481 58.9117 26.975 59.1086 27.7626C59.2661 28.4321 59.5024 29.1803 59.4236 29.8497C59.3842 30.0466 59.4236 30.086 59.4236 30.2435C59.4236 30.2829 59.463 30.5979 59.5024 30.6373C59.5811 30.7948 59.8174 30.7948 59.8962 30.9917C59.8962 31.0705 59.778 31.3461 59.778 31.4249C59.778 32.055 59.8174 32.7244 59.8174 33.3545C59.8174 33.5908 59.778 33.8664 59.7387 34.1421C59.6993 34.339 59.7387 34.5359 59.778 34.7328C59.778 34.8509 59.6993 34.8903 59.6993 35.0478C59.6599 35.2841 59.7387 35.5204 59.6993 35.7566C59.6993 35.8748 59.6205 36.4261 59.5811 36.4655C59.5418 36.4655 59.4236 36.5836 59.5024 36.5836C59.5024 36.5442 59.5024 36.5442 59.5024 36.5049H59.5418C59.5024 36.5442 59.5024 36.8986 59.3842 37.2924C58.8329 39.6552 57.8091 42.1755 56.7458 44.3414C56.5489 44.7352 56.3914 45.0896 56.1945 45.4834C56.037 45.7984 55.9188 46.1528 55.6826 46.3891C54.068 48.1218 53.3592 50.4058 51.469 52.0597C49.7363 53.5168 48.0823 54.9738 45.9558 56.0764ZM50.2876 8.34853C50.2482 8.38791 50.2482 8.38791 50.2088 8.42729C50.4057 8.54543 50.5632 8.66356 50.7601 8.7817C50.7207 8.66356 50.4845 8.46667 50.2876 8.34853Z" fill="black"/>
</svg>
