<svg width="512" height="512" viewBox="25 25 160 160" fill="none" xmlns="http://www.w3.org/2000/svg">
<g>
<path d="M82.0822 39.6651L140.118 67.6295L148.923 62.4643L92.6369 35.3571L82.0822 39.6651Z" fill="#0E4BE4"/>
<path d="M140.118 67.1786L148.923 62.4643V73.0714L140.118 78.9643V67.1786Z" fill="#CCCCCC"/>
<path d="M82.0822 39.6778V54.73V73.0714V93.9419V108.78L139.542 135.536V121.393L94.9821 100.179V57.75L140.118 78.9643V67.1786L82.0822 39.6778Z" fill="black"/>
<path d="M139.542 135.536L150.095 130.821V116.679L139.542 121.393V135.536Z" fill="#CCCCCC"/>
<path d="M94.9821 100.178L139.541 121.393L150.095 116.678L105.536 96.6429L94.9821 100.178Z" fill="#0E4BE4"/>
<path d="M94.9827 57.75L94.9821 100.178L105.536 96.6429V62.4643L94.9827 57.75Z" fill="#0E4BE4"/>
<path d="M37.5238 56.1651L95.5596 84.1295L104.364 78.9643L48.0785 51.8571L37.5238 56.1651Z" fill="#0E4BE4"/>
<path d="M95.5593 83.6786L104.364 78.9643L104.363 90.75L95.5593 95.4643V83.6786Z" fill="#CCCCCC"/>
<path d="M37.5238 56.1778V71.23V89.5714V110.442V125.28L94.9833 152.036V137.893L50.4238 116.679V74.25L95.5596 95.4643V83.6786L37.5238 56.1778Z" fill="black"/>
<path d="M94.9833 152.036L105.537 147.321V133.179L94.9833 137.893V152.036Z" fill="#CCCCCC"/>
<path d="M50.4238 116.678L94.9827 137.893L105.537 133.178L60.9772 113.143L50.4238 116.678Z" fill="#0E4BE4"/>
<path d="M50.4243 74.25L50.4238 116.678L60.9772 113.143V78.9643L50.4243 74.25Z" fill="#0E4BE4"/>
<path fill-rule="evenodd" clip-rule="evenodd" d="M167.497 62.4839C161.102 58.7512 154.746 54.9404 148.34 51.2338C147.683 51.5524 147.09 51.9832 146.457 52.3438C149.043 53.9847 151.732 55.4594 154.355 57.0422C155.265 57.5551 156.138 58.1381 157.069 58.609C157.215 58.3966 157.36 58.1822 157.504 57.9698C159.357 59.0939 161.253 60.1457 163.095 61.2918C163.233 61.0553 163.368 60.8189 163.506 60.5845C165.168 61.5663 166.835 62.544 168.501 63.5197C168.523 62.9087 167.908 62.7444 167.497 62.4839Z" fill="#A4A4A4"/>
<path fill-rule="evenodd" clip-rule="evenodd" d="M169.893 60.7501C163.498 57.0174 157.142 53.2066 150.735 49.5C150.079 49.8186 149.485 50.2493 148.853 50.61C151.439 52.2509 154.127 53.7255 156.751 55.3084C157.661 55.8213 158.534 56.4043 159.465 56.8751C159.61 56.6628 159.756 56.4484 159.899 56.236C161.753 57.36 162.02 57.7046 163.862 58.8507C164 58.6142 165.764 59.0851 165.901 58.8507C167.564 59.8324 167.422 59.7743 169.089 60.7501C169.11 60.139 170.304 61.0105 169.893 60.7501Z" fill="#A4A4A4"/>
<path fill-rule="evenodd" clip-rule="evenodd" d="M152.514 56.8919C150.195 55.5595 147.927 54.1289 145.576 52.8587C145.012 53.2734 144.171 53.4417 143.808 54.0588C147.32 56.1105 150.808 58.2022 154.328 60.2378C154.471 60.0134 154.615 59.791 154.76 59.5686C157.517 61.2516 160.346 62.8124 163.083 64.5255C163.234 64.2871 163.386 64.0506 163.537 63.8142C165.174 64.816 166.837 65.7717 168.49 66.7434C168.498 66.4249 168.362 66.2005 168.085 66.0682C162.902 62.9968 157.698 59.9613 152.514 56.8919Z" fill="#A4A4A4"/>
<path fill-rule="evenodd" clip-rule="evenodd" d="M142.892 54.4275C142.243 54.8122 141.591 55.1848 140.948 55.5795C144.486 57.6853 148.019 59.8051 151.602 61.8307C151.744 61.6203 151.887 61.4119 152.029 61.2036C155.71 63.3754 159.406 65.5233 163.066 67.7292C163.233 67.5068 163.398 67.2844 163.565 67.064C165.206 68.0297 166.831 69.0215 168.49 69.9532C168.582 69.5545 168.219 69.3982 167.973 69.2239C159.617 64.2831 151.227 59.4024 142.892 54.4275Z" fill="#A4A4A4"/>
<path fill-rule="evenodd" clip-rule="evenodd" d="M142.027 57.1764C141.386 56.7978 140.765 56.383 140.091 56.0685C139.523 56.4932 138.735 56.6916 138.305 57.2566C141.797 59.3323 145.287 61.416 148.817 63.4236C148.929 63.1972 149.041 62.9728 149.155 62.7484C153.793 65.4652 158.427 68.1901 163.052 70.931C163.266 70.7446 163.431 70.1656 163.791 70.4421C165.379 71.3277 166.906 72.3254 168.511 73.175C168.564 72.7121 168.118 72.5599 167.825 72.3575C159.221 67.3065 150.629 62.2315 142.027 57.1764Z" fill="#A4A4A4"/>
<path fill-rule="evenodd" clip-rule="evenodd" d="M167.827 75.5852C157.667 69.6226 147.528 63.6219 137.364 57.6632C136.799 58.1221 136.002 58.3004 135.544 58.8754C139.056 60.919 142.534 63.0308 146.066 65.0404C146.184 64.824 146.302 64.6076 146.42 64.3932C152.011 67.5909 157.525 70.9289 163.095 74.1667C163.223 73.9523 163.35 73.7399 163.478 73.5255C165.221 74.385 166.801 75.5571 168.553 76.4046C168.521 75.9719 168.138 75.7775 167.827 75.5852Z" fill="#A4A4A4"/>
<path fill-rule="evenodd" clip-rule="evenodd" d="M148.756 67.589C144.028 64.8361 139.348 61.999 134.596 59.2882C134.302 59.4685 134.005 59.6488 133.706 59.8251C133.696 60.2178 133.686 60.6105 133.681 61.0032C137.784 63.4215 141.895 65.8298 145.989 68.2642C146.158 68.0478 146.327 67.8294 146.498 67.615C152.019 70.8929 157.557 74.1407 163.093 77.3904C163.231 77.1741 163.368 76.9577 163.506 76.7433C165.214 77.6589 166.821 78.7609 168.553 79.6284C168.494 79.3139 168.327 79.0875 168.055 78.9492C161.617 75.1725 155.191 71.3737 148.756 67.589Z" fill="#A4A4A4"/>
<path fill-rule="evenodd" clip-rule="evenodd" d="M165.677 80.7725C155.004 74.5254 144.378 68.1941 133.69 61.973C133.683 62.7323 133.686 63.4937 133.69 64.253C137.851 66.6653 141.984 69.1257 146.131 71.5661C146.26 71.3277 146.388 71.0872 146.518 70.8508C152.046 74.1327 157.584 77.3985 163.14 80.6322C163.309 80.4379 163.4 80.1434 163.641 80.0292C164.632 80.49 165.467 81.3014 166.526 81.5899L166.642 81.4036C166.348 81.1532 166.011 80.9608 165.677 80.7725Z" fill="#A4A4A4"/>
<path fill-rule="evenodd" clip-rule="evenodd" d="M162.916 82.3813C153.174 76.6491 143.436 70.9109 133.696 65.1767C133.685 65.934 133.687 66.6934 133.685 67.4507C137.806 69.9171 141.978 72.2953 146.082 74.7898C146.235 74.5594 146.386 74.329 146.536 74.0986C151.107 76.8314 155.731 79.4701 160.285 82.231C160.464 82.0287 160.638 81.8243 160.815 81.622C161.875 82.1188 162.788 82.9163 163.913 83.2609C163.789 82.778 163.282 82.6258 162.916 82.3813Z" fill="#A4A4A4"/>
<path fill-rule="evenodd" clip-rule="evenodd" d="M159.801 83.7738C151.101 78.6406 142.383 73.5375 133.692 68.3884C133.684 69.1497 133.688 69.9111 133.679 70.6724C137.798 73.1328 141.954 75.5291 146.07 77.9995C146.227 77.7831 146.384 77.5667 146.541 77.3523C150.252 79.4922 153.925 81.7021 157.626 83.8619C157.759 83.6395 157.891 83.4151 158.024 83.1927C159.088 83.7177 160.021 84.5211 161.169 84.8577C160.949 84.2546 160.281 84.0944 159.801 83.7738Z" fill="#A4A4A4"/>
<path fill-rule="evenodd" clip-rule="evenodd" d="M158.3 86.126C150.105 81.2774 141.886 76.4668 133.687 71.6181C133.687 72.3775 133.689 73.1368 133.679 73.8962C137.8 76.3586 141.949 78.7729 146.086 81.2092C146.233 81.0009 146.38 80.7925 146.528 80.5841C149.352 82.1529 152.082 83.896 154.912 85.4528C155.045 85.2364 155.181 85.018 155.315 84.8036C156.179 85.2865 157.007 85.8315 157.879 86.2983C158.06 86.5027 158.665 86.4225 158.3 86.126Z" fill="#A4A4A4"/>
<path fill-rule="evenodd" clip-rule="evenodd" d="M154.037 86.8353C147.251 82.8461 140.475 78.839 133.681 74.8579C133.684 75.6253 133.686 76.3926 133.692 77.162C137.845 79.5543 141.941 82.0467 146.101 84.425C146.249 84.2126 146.394 84.0022 146.541 83.7898C148.422 84.8758 150.273 86.0138 152.166 87.0777C152.288 86.8533 152.412 86.6269 152.535 86.4025C153.638 86.9094 154.56 87.8571 155.774 88.0674C155.342 87.4744 154.64 87.2039 154.037 86.8353Z" fill="#A4A4A4"/>
<path fill-rule="evenodd" clip-rule="evenodd" d="M150.904 88.2198C145.17 84.8377 139.435 81.4557 133.689 78.0917C133.685 78.8611 133.685 79.6285 133.694 80.3958C137.851 82.7921 141.962 85.2685 146.115 87.6708C146.253 87.4464 146.39 87.224 146.526 87.0016C147.457 87.5706 148.412 88.1016 149.344 88.6726C149.513 88.4582 149.682 88.2418 149.851 88.0294C150.757 88.5824 151.669 89.1254 152.593 89.6443H153.09C152.42 89.0793 151.659 88.6485 150.904 88.2198Z" fill="#A4A4A4"/>
<path fill-rule="evenodd" clip-rule="evenodd" d="M122.938 135.555C116.543 131.823 110.187 128.012 103.78 124.305C103.124 124.624 102.53 125.055 101.897 125.415C104.484 127.056 107.172 128.531 109.796 130.114C110.706 130.627 111.578 131.21 112.51 131.68C112.655 131.468 112.801 131.254 112.944 131.041C114.797 132.165 116.694 133.217 118.535 134.363C118.673 134.127 118.809 133.89 118.946 133.656C120.609 134.638 122.275 135.615 123.942 136.591C123.964 135.98 123.348 135.816 122.938 135.555Z" fill="#A4A4A4"/>
<path fill-rule="evenodd" clip-rule="evenodd" d="M125.333 133.821C118.938 130.089 112.583 126.278 106.176 122.571C105.519 122.89 104.926 123.321 104.293 123.681C106.879 125.322 109.568 126.797 112.191 128.38C113.101 128.893 113.974 129.476 114.905 129.947C115.051 129.734 115.196 129.52 115.34 129.307C117.193 130.431 117.461 130.776 119.302 131.922C119.44 131.686 121.204 132.156 121.342 131.922C123.004 132.904 122.863 132.846 124.529 133.821C124.551 133.21 125.744 134.082 125.333 133.821Z" fill="#A4A4A4"/>
<path fill-rule="evenodd" clip-rule="evenodd" d="M107.954 129.963C105.635 128.631 103.367 127.2 101.017 125.93C100.453 126.345 99.6117 126.513 99.2481 127.13C102.76 129.182 106.248 131.274 109.768 133.309C109.912 133.085 110.055 132.862 110.201 132.64C112.958 134.323 115.786 135.884 118.524 137.597C118.675 137.358 118.826 137.122 118.978 136.886C120.615 137.887 122.277 138.843 123.93 139.815C123.938 139.496 123.802 139.272 123.525 139.14C118.343 136.068 113.139 133.033 107.954 129.963Z" fill="#A4A4A4"/>
<path fill-rule="evenodd" clip-rule="evenodd" d="M98.3324 127.499C97.6839 127.884 97.0314 128.256 96.3888 128.651C99.9263 130.757 103.46 132.877 107.043 134.902C107.184 134.692 107.328 134.483 107.469 134.275C111.15 136.447 114.847 138.595 118.506 140.801C118.673 140.578 118.838 140.356 119.005 140.135C120.646 141.101 122.272 142.093 123.93 143.025C124.023 142.626 123.659 142.47 123.413 142.295C115.057 137.355 106.667 132.474 98.3324 127.499Z" fill="#A4A4A4"/>
<path fill-rule="evenodd" clip-rule="evenodd" d="M97.4676 130.248C96.8269 129.869 96.2059 129.454 95.5318 129.14C94.9638 129.565 94.1757 129.763 93.7454 130.328C97.2377 132.404 100.728 134.487 104.258 136.495C104.37 136.269 104.482 136.044 104.596 135.82C109.234 138.537 113.868 141.262 118.492 144.002C118.706 143.816 118.871 143.237 119.231 143.514C120.819 144.399 122.346 145.397 123.952 146.246C124.005 145.784 123.559 145.631 123.266 145.429C114.662 140.378 106.07 135.303 97.4676 130.248Z" fill="#A4A4A4"/>
<path fill-rule="evenodd" clip-rule="evenodd" d="M123.268 148.657C113.107 142.694 102.968 136.693 92.804 130.735C92.24 131.193 91.4421 131.372 90.9841 131.947C94.4961 133.99 97.9747 136.102 101.506 138.112C101.624 137.895 101.742 137.679 101.86 137.465C107.451 140.662 112.966 144 118.535 147.238C118.663 147.024 118.791 146.811 118.919 146.597C120.662 147.456 122.242 148.629 123.993 149.476C123.962 149.043 123.578 148.849 123.268 148.657Z" fill="#A4A4A4"/>
<path fill-rule="evenodd" clip-rule="evenodd" d="M104.197 140.66C99.4683 137.908 94.7889 135.07 90.0369 132.36C89.7421 132.54 89.4453 132.72 89.1466 132.897C89.1368 133.289 89.1269 133.682 89.1211 134.075C93.2246 136.493 97.3359 138.901 101.43 141.336C101.599 141.119 101.768 140.901 101.939 140.686C107.459 143.964 112.997 147.212 118.533 150.462C118.671 150.246 118.809 150.029 118.946 149.815C120.654 150.73 122.262 151.832 123.993 152.7C123.934 152.385 123.767 152.159 123.496 152.021C117.058 148.244 110.631 144.445 104.197 140.66Z" fill="#A4A4A4"/>
<path fill-rule="evenodd" clip-rule="evenodd" d="M121.118 153.844C110.444 147.597 99.8181 141.265 89.1309 135.044C89.123 135.804 89.127 136.565 89.1309 137.324C93.2914 139.737 97.4244 142.197 101.571 144.638C101.701 144.399 101.829 144.159 101.958 143.922C107.487 147.204 113.025 150.47 118.581 153.704C118.75 153.509 118.84 153.215 119.082 153.101C120.072 153.561 120.908 154.373 121.967 154.661L122.083 154.475C121.788 154.225 121.452 154.032 121.118 153.844Z" fill="#A4A4A4"/>
<path fill-rule="evenodd" clip-rule="evenodd" d="M118.357 155.453C108.615 149.721 98.8768 143.982 89.1369 138.248C89.1251 139.005 89.127 139.765 89.1251 140.522C93.2463 142.989 97.4186 145.367 101.522 147.861C101.675 147.631 101.827 147.4 101.976 147.17C106.547 149.903 111.172 152.542 115.725 155.302C115.904 155.1 116.079 154.896 116.256 154.693C117.315 155.19 118.229 155.988 119.353 156.332C119.229 155.849 118.722 155.697 118.357 155.453Z" fill="#A4A4A4"/>
<path fill-rule="evenodd" clip-rule="evenodd" d="M115.242 156.845C106.541 151.712 97.8233 146.609 89.1328 141.46C89.125 142.221 89.1289 142.983 89.1191 143.744C93.2383 146.204 97.3949 148.601 101.51 151.071C101.667 150.855 101.825 150.638 101.982 150.424C105.692 152.564 109.365 154.774 113.066 156.933C113.2 156.711 113.331 156.487 113.465 156.264C114.528 156.789 115.462 157.593 116.609 157.929C116.389 157.326 115.721 157.166 115.242 156.845Z" fill="#A4A4A4"/>
<path fill-rule="evenodd" clip-rule="evenodd" d="M113.74 159.197C105.545 154.349 97.3262 149.538 89.127 144.69C89.127 145.449 89.129 146.208 89.1192 146.968C93.2404 149.43 97.3891 151.844 101.526 154.281C101.673 154.072 101.821 153.864 101.968 153.656C104.792 155.224 107.522 156.967 110.352 158.524C110.486 158.308 110.621 158.089 110.755 157.875C111.62 158.358 112.447 158.903 113.32 159.37C113.5 159.574 114.106 159.494 113.74 159.197Z" fill="#A4A4A4"/>
<path fill-rule="evenodd" clip-rule="evenodd" d="M109.477 159.907C102.691 155.918 95.915 151.91 89.121 147.929C89.1249 148.697 89.1269 149.464 89.1328 150.233C93.2854 152.626 97.3811 155.118 101.542 157.496C101.689 157.284 101.834 157.074 101.982 156.861C103.863 157.947 105.714 159.085 107.606 160.149C107.728 159.925 107.852 159.698 107.976 159.474C109.078 159.981 110 160.928 111.215 161.139C110.782 160.546 110.081 160.275 109.477 159.907Z" fill="#A4A4A4"/>
<path fill-rule="evenodd" clip-rule="evenodd" d="M106.345 161.291C100.61 157.909 94.8755 154.527 89.129 151.163C89.1251 151.933 89.1251 152.7 89.1349 153.467C93.2915 155.864 97.4028 158.34 101.555 160.742C101.693 160.518 101.831 160.295 101.966 160.073C102.898 160.642 103.853 161.173 104.784 161.744C104.953 161.53 105.122 161.313 105.291 161.101C106.197 161.654 107.109 162.197 108.033 162.716H108.53C107.86 162.151 107.1 161.72 106.345 161.291Z" fill="#A4A4A4"/>
<path fill-rule="evenodd" clip-rule="evenodd" d="M165.152 119.055C158.757 115.323 152.401 111.512 145.994 107.805C145.338 108.124 144.744 108.555 144.112 108.915C146.698 110.556 149.386 112.031 152.01 113.614C152.92 114.127 153.793 114.71 154.724 115.18C154.87 114.968 155.015 114.754 155.158 114.541C157.012 115.665 158.908 116.717 160.75 117.863C160.887 117.627 161.023 117.39 161.16 117.156C162.823 118.138 164.49 119.115 166.156 120.091C166.178 119.48 165.563 119.316 165.152 119.055Z" fill="#A4A4A4"/>
<path fill-rule="evenodd" clip-rule="evenodd" d="M167.548 117.321C161.153 113.589 154.797 109.778 148.39 106.071C147.734 106.39 147.14 106.821 146.507 107.181C149.094 108.822 151.782 110.297 154.406 111.88C155.316 112.393 156.188 112.976 157.12 113.447C157.265 113.234 157.411 113.02 157.554 112.807C159.407 113.931 159.675 114.276 161.517 115.422C161.654 115.186 163.419 115.657 163.556 115.422C165.219 116.404 165.077 116.346 166.743 117.321C166.765 116.71 167.958 117.582 167.548 117.321Z" fill="#A4A4A4"/>
<path fill-rule="evenodd" clip-rule="evenodd" d="M150.169 113.463C147.85 112.131 145.582 110.7 143.231 109.43C142.667 109.845 141.826 110.013 141.462 110.63C144.974 112.682 148.463 114.774 151.983 116.809C152.126 116.585 152.269 116.362 152.415 116.14C155.172 117.823 158 119.384 160.738 121.097C160.889 120.858 161.041 120.622 161.192 120.386C162.829 121.387 164.492 122.343 166.144 123.315C166.152 122.996 166.017 122.772 165.74 122.64C160.557 119.568 155.353 116.533 150.169 113.463Z" fill="#A4A4A4"/>
<path fill-rule="evenodd" clip-rule="evenodd" d="M140.547 110.999C139.898 111.384 139.246 111.756 138.603 112.151C142.141 114.257 145.674 116.377 149.257 118.402C149.398 118.192 149.542 117.983 149.683 117.775C153.364 119.947 157.061 122.095 160.72 124.301C160.887 124.078 161.052 123.856 161.22 123.635C162.861 124.601 164.486 125.593 166.145 126.525C166.237 126.126 165.873 125.97 165.628 125.795C157.271 120.855 148.881 115.974 140.547 110.999Z" fill="#A4A4A4"/>
<path fill-rule="evenodd" clip-rule="evenodd" d="M139.682 113.748C139.041 113.369 138.42 112.954 137.746 112.64C137.178 113.065 136.39 113.263 135.96 113.828C139.452 115.904 142.942 117.987 146.472 119.995C146.584 119.769 146.696 119.544 146.81 119.32C151.448 122.037 156.082 124.762 160.707 127.502C160.921 127.316 161.086 126.737 161.445 127.014C163.033 127.899 164.56 128.897 166.166 129.746C166.219 129.284 165.773 129.131 165.48 128.929C156.876 123.878 148.284 118.803 139.682 113.748Z" fill="#A4A4A4"/>
<path fill-rule="evenodd" clip-rule="evenodd" d="M165.482 132.157C155.322 126.194 145.183 120.193 135.018 114.235C134.454 114.693 133.656 114.872 133.198 115.447C136.71 117.49 140.189 119.602 143.721 121.612C143.838 121.395 143.956 121.179 144.074 120.965C149.666 124.162 155.18 127.5 160.75 130.738C160.877 130.524 161.005 130.311 161.133 130.097C162.876 130.956 164.456 132.129 166.207 132.976C166.176 132.543 165.793 132.349 165.482 132.157Z" fill="#A4A4A4"/>
<path fill-rule="evenodd" clip-rule="evenodd" d="M146.411 124.16C141.683 121.407 137.003 118.57 132.251 115.86C131.956 116.04 131.66 116.22 131.361 116.397C131.351 116.789 131.341 117.182 131.335 117.575C135.439 119.993 139.55 122.401 143.644 124.836C143.813 124.619 143.982 124.401 144.153 124.186C149.673 127.464 155.212 130.712 160.748 133.962C160.885 133.745 161.023 133.529 161.16 133.315C162.868 134.23 164.476 135.332 166.207 136.2C166.148 135.885 165.981 135.659 165.71 135.521C159.272 131.744 152.845 127.945 146.411 124.16Z" fill="#A4A4A4"/>
<path fill-rule="evenodd" clip-rule="evenodd" d="M163.332 137.344C152.659 131.097 142.032 124.765 131.345 118.544C131.337 119.304 131.341 120.065 131.345 120.824C135.506 123.237 139.639 125.697 143.785 128.137C143.915 127.899 144.043 127.659 144.173 127.422C149.701 130.704 155.239 133.97 160.795 137.204C160.964 137.009 161.054 136.715 161.296 136.601C162.287 137.061 163.122 137.873 164.181 138.161L164.297 137.975C164.002 137.725 163.666 137.532 163.332 137.344Z" fill="#A4A4A4"/>
<path fill-rule="evenodd" clip-rule="evenodd" d="M160.571 138.953C150.829 133.22 141.091 127.482 131.351 121.748C131.339 122.505 131.341 123.265 131.339 124.022C135.461 126.488 139.633 128.867 143.736 131.361C143.89 131.131 144.041 130.9 144.19 130.67C148.762 133.403 153.386 136.042 157.939 138.802C158.118 138.6 158.293 138.396 158.47 138.193C159.529 138.69 160.443 139.488 161.567 139.832C161.444 139.349 160.937 139.197 160.571 138.953Z" fill="#A4A4A4"/>
<path fill-rule="evenodd" clip-rule="evenodd" d="M157.456 140.345C148.756 135.212 140.038 130.109 131.347 124.96C131.339 125.721 131.343 126.482 131.333 127.244C135.453 129.704 139.609 132.101 143.725 134.571C143.882 134.355 144.039 134.138 144.196 133.924C147.907 136.064 151.58 138.274 155.28 140.433C155.414 140.211 155.546 139.987 155.679 139.764C156.743 140.289 157.676 141.093 158.824 141.429C158.604 140.826 157.935 140.666 157.456 140.345Z" fill="#A4A4A4"/>
<path fill-rule="evenodd" clip-rule="evenodd" d="M155.955 142.697C147.759 137.849 139.54 133.038 131.341 128.19C131.341 128.949 131.343 129.708 131.333 130.468C135.455 132.93 139.603 135.344 143.74 137.781C143.888 137.572 144.035 137.364 144.182 137.156C147.007 138.724 149.736 140.467 152.566 142.024C152.7 141.808 152.836 141.589 152.969 141.375C153.834 141.858 154.661 142.403 155.534 142.87C155.715 143.074 156.32 142.994 155.955 142.697Z" fill="#A4A4A4"/>
<path fill-rule="evenodd" clip-rule="evenodd" d="M151.692 143.407C144.906 139.418 138.129 135.41 131.335 131.429C131.339 132.197 131.341 132.964 131.347 133.733C135.5 136.126 139.595 138.618 143.756 140.996C143.903 140.784 144.049 140.574 144.196 140.361C146.077 141.447 147.928 142.585 149.821 143.649C149.943 143.425 150.066 143.198 150.19 142.974C151.293 143.481 152.214 144.428 153.429 144.639C152.997 144.046 152.295 143.775 151.692 143.407Z" fill="#A4A4A4"/>
<path fill-rule="evenodd" clip-rule="evenodd" d="M148.559 144.791C142.824 141.409 137.09 138.027 131.343 134.663C131.339 135.433 131.339 136.2 131.349 136.967C135.506 139.364 139.617 141.84 143.77 144.242C143.907 144.018 144.045 143.795 144.18 143.573C145.112 144.142 146.067 144.673 146.999 145.244C147.168 145.03 147.337 144.813 147.506 144.601C148.412 145.154 149.324 145.697 150.247 146.216H150.745C150.074 145.651 149.314 145.22 148.559 144.791Z" fill="#A4A4A4"/>
<path fill-rule="evenodd" clip-rule="evenodd" d="M120.592 81.341C114.197 77.6084 107.842 73.7976 101.435 70.091C100.778 70.4095 100.185 70.8403 99.5522 71.201C102.138 72.8419 104.827 74.3165 107.451 75.8993C108.361 76.4122 109.233 76.9953 110.165 77.4661C110.31 77.2537 110.456 77.0394 110.599 76.827C112.452 77.951 114.349 79.0029 116.19 80.1489C116.328 79.9125 116.463 79.6761 116.601 79.4416C118.264 80.4234 119.93 81.4011 121.597 82.3769C121.618 81.7658 121.003 81.6015 120.592 81.341Z" fill="#A4A4A4"/>
<path fill-rule="evenodd" clip-rule="evenodd" d="M122.988 79.6072C116.593 75.8745 110.237 72.0637 103.831 68.3571C103.174 68.6757 102.581 69.1065 101.948 69.4671C104.534 71.108 107.223 72.5827 109.846 74.1655C110.756 74.6784 111.629 75.2614 112.56 75.7323C112.706 75.5199 112.851 75.3055 112.995 75.0931C114.848 76.2171 115.116 76.5618 116.957 77.7078C117.095 77.4714 118.859 77.9422 118.997 77.7078C120.659 78.6895 120.517 78.6314 122.184 79.6072C122.206 78.9961 123.399 79.8676 122.988 79.6072Z" fill="#A4A4A4"/>
<path fill-rule="evenodd" clip-rule="evenodd" d="M105.609 75.749C103.29 74.4166 101.022 72.9861 98.6717 71.7158C98.1077 72.1306 97.2665 72.2989 96.903 72.916C100.415 74.9676 103.903 77.0593 107.423 79.095C107.567 78.8706 107.71 78.6482 107.855 78.4258C110.613 80.1088 113.441 81.6696 116.178 83.3826C116.33 83.1442 116.481 82.9078 116.632 82.6713C118.27 83.6731 119.932 84.6288 121.585 85.6006C121.593 85.282 121.457 85.0576 121.18 84.9254C115.998 81.8539 110.794 78.8185 105.609 75.749Z" fill="#A4A4A4"/>
<path fill-rule="evenodd" clip-rule="evenodd" d="M95.9872 73.2846C95.3386 73.6693 94.6862 74.042 94.0435 74.4367C97.581 76.5425 101.115 78.6622 104.697 80.6878C104.839 80.4775 104.982 80.2691 105.124 80.0607C108.805 82.2326 112.501 84.3804 116.161 86.5864C116.328 86.364 116.493 86.1416 116.66 85.9212C118.301 86.8869 119.926 87.8787 121.585 88.8103C121.677 88.4116 121.314 88.2553 121.068 88.081C112.712 83.1402 104.322 78.2595 95.9872 73.2846Z" fill="#A4A4A4"/>
<path fill-rule="evenodd" clip-rule="evenodd" d="M95.1224 76.0336C94.4817 75.6549 93.8606 75.2402 93.1865 74.9256C92.6186 75.3504 91.8305 75.5487 91.4001 76.1137C94.8924 78.1894 98.3828 80.2731 101.912 82.2807C102.024 82.0543 102.136 81.8299 102.25 81.6055C106.889 84.3223 111.523 87.0472 116.147 89.7881C116.361 89.6018 116.526 89.0227 116.886 89.2992C118.474 90.1848 120.001 91.1826 121.607 92.0321C121.66 91.5693 121.213 91.417 120.921 91.2146C112.317 86.1636 103.724 81.0886 95.1224 76.0336Z" fill="#A4A4A4"/>
<path fill-rule="evenodd" clip-rule="evenodd" d="M120.923 94.4423C110.762 88.4797 100.623 82.479 90.4587 76.5204C89.8947 76.9792 89.0968 77.1575 88.6389 77.7326C92.1509 79.7762 95.6294 81.888 99.161 83.8975C99.2789 83.6812 99.3969 83.4648 99.5148 83.2504C105.106 86.4481 110.621 89.786 116.19 93.0238C116.318 92.8094 116.446 92.597 116.573 92.3827C118.317 93.2422 119.897 94.4143 121.648 95.2618C121.616 94.829 121.233 94.6347 120.923 94.4423Z" fill="#A4A4A4"/>
<path fill-rule="evenodd" clip-rule="evenodd" d="M101.851 86.4461C97.123 83.6932 92.4437 80.8562 87.6916 78.1453C87.3968 78.3256 87.1001 78.506 86.8014 78.6823C86.7915 79.075 86.7817 79.4677 86.7758 79.8604C90.8793 82.2787 94.9907 84.687 99.0844 87.1213C99.2534 86.9049 99.4224 86.6866 99.5934 86.4722C105.114 89.75 110.652 92.9978 116.188 96.2476C116.326 96.0312 116.463 95.8148 116.601 95.6004C118.309 96.5161 119.916 97.618 121.648 98.4856C121.589 98.171 121.422 97.9446 121.151 97.8064C114.712 94.0296 108.286 90.2309 101.851 86.4461Z" fill="#A4A4A4"/>
<path fill-rule="evenodd" clip-rule="evenodd" d="M118.773 99.6296C108.099 93.3825 97.4729 87.0512 86.7856 80.8301C86.7778 81.5895 86.7817 82.3508 86.7856 83.1102C90.9461 85.5225 95.0791 87.9829 99.2259 90.4232C99.3556 90.1848 99.4833 89.9444 99.613 89.7079C105.141 92.9898 110.68 96.2556 116.235 99.4894C116.404 99.295 116.495 99.0005 116.737 98.8863C117.727 99.3471 118.562 100.159 119.622 100.447L119.738 100.261C119.443 100.01 119.107 99.818 118.773 99.6296Z" fill="#A4A4A4"/>
<path fill-rule="evenodd" clip-rule="evenodd" d="M116.011 101.238C106.27 95.5062 96.5316 89.768 86.7916 84.0338C86.7798 84.7911 86.7818 85.5505 86.7798 86.3078C90.901 88.7742 95.0733 91.1525 99.1768 93.6469C99.3301 93.4165 99.4814 93.1861 99.6308 92.9557C104.202 95.6885 108.826 98.3273 113.38 101.088C113.559 100.886 113.734 100.681 113.911 100.479C114.97 100.976 115.884 101.773 117.008 102.118C116.884 101.635 116.377 101.483 116.011 101.238Z" fill="#A4A4A4"/>
<path fill-rule="evenodd" clip-rule="evenodd" d="M112.896 102.631C104.196 97.4978 95.4781 92.3947 86.7876 87.2455C86.7797 88.0069 86.7837 88.7682 86.7738 89.5296C90.8931 91.99 95.0496 94.3862 99.165 96.8566C99.3222 96.6403 99.4794 96.4239 99.6366 96.2095C103.347 98.3493 107.02 100.559 110.721 102.719C110.854 102.497 110.986 102.272 111.12 102.05C112.183 102.575 113.116 103.378 114.264 103.715C114.044 103.112 113.376 102.952 112.896 102.631Z" fill="#A4A4A4"/>
<path fill-rule="evenodd" clip-rule="evenodd" d="M111.395 104.983C103.2 100.135 94.9809 95.3239 86.7818 90.4753C86.7818 91.2346 86.7837 91.994 86.7739 92.7533C90.8951 95.2157 95.0438 97.63 99.1807 100.066C99.3281 99.858 99.4755 99.6496 99.6229 99.4413C102.447 101.01 105.177 102.753 108.007 104.31C108.14 104.094 108.276 103.875 108.41 103.661C109.274 104.144 110.102 104.689 110.974 105.155C111.155 105.36 111.761 105.28 111.395 104.983Z" fill="#A4A4A4"/>
<path fill-rule="evenodd" clip-rule="evenodd" d="M107.132 105.692C100.346 101.703 93.5698 97.6962 86.7758 93.7151C86.7797 94.4824 86.7817 95.2498 86.7876 96.0192C90.9402 98.4114 95.0359 100.904 99.1964 103.282C99.3438 103.07 99.4892 102.859 99.6366 102.647C101.517 103.733 103.369 104.871 105.261 105.935C105.383 105.71 105.507 105.484 105.631 105.26C106.733 105.767 107.655 106.714 108.87 106.925C108.437 106.332 107.736 106.061 107.132 105.692Z" fill="#A4A4A4"/>
<path fill-rule="evenodd" clip-rule="evenodd" d="M104 107.077C98.2649 103.695 92.5302 100.313 86.7837 96.9489C86.7798 97.7182 86.7798 98.4856 86.7896 99.253C90.9462 101.649 95.0576 104.126 99.2102 106.528C99.3478 106.304 99.4853 106.081 99.621 105.859C100.552 106.428 101.508 106.959 102.439 107.53C102.608 107.315 102.777 107.099 102.946 106.887C103.852 107.44 104.764 107.983 105.688 108.501H106.185C105.515 107.936 104.754 107.506 104 107.077Z" fill="#A4A4A4"/>
</g>
</svg>
