<svg width="53" height="50" viewBox="0 0 53 50" fill="none" xmlns="http://www.w3.org/2000/svg">
<path d="M52.015 13.018L40.7676 12.1171L44.7266 7.29731L39.9128 11.2613L38.968 0L38.0682 11.2613L33.2543 7.29731L37.2134 12.1171L25.966 13.0631L34.9639 13.7838L15.6184 20.2703C15.3035 19.7748 14.7636 19.3694 14.1337 19.2793C12.919 19.009 11.7043 19.8199 11.4344 21.0361C11.3894 21.2613 11.3894 21.4415 11.3894 21.6667L4.19103 24.0991C3.87611 23.6036 3.33624 23.1982 2.70638 23.0631C1.49167 22.7928 0.276964 23.6036 0.052016 24.8199C-0.217921 26.0361 0.591874 27.2523 1.80659 27.4775C2.70638 27.6577 3.60619 27.2523 4.10108 26.5766L14.0887 31.0811C14.0887 31.1262 14.0887 31.1712 14.0438 31.1712C13.7738 32.3874 14.5836 33.6037 15.7984 33.8289C16.0683 33.8739 16.3832 33.8739 16.6531 33.8289L19.8474 45.5406C19.2626 45.8559 18.8577 46.3965 18.7227 47.0722C18.4527 48.2884 19.2625 49.5046 20.4773 49.7298C21.692 50.0001 22.9067 49.1893 23.1317 47.9731C23.3116 47.0722 22.9517 46.2163 22.2768 45.6758L38.0232 15.4054L38.878 25.991L39.7778 14.7298L44.5917 18.6937L40.6326 13.8739L52.015 13.018ZM4.46099 25.8559C4.46099 25.8109 4.50597 25.7658 4.50597 25.7208C4.55096 25.4054 4.55096 25.0901 4.50597 24.8199L11.6143 22.4325C11.9292 23.0631 12.4691 23.5586 13.234 23.6937C13.4589 23.7388 13.7288 23.7388 13.9538 23.7388L15.5284 29.5046C15.0785 29.6847 14.7186 29.955 14.4487 30.3604L4.46099 25.8559ZM21.467 45.3604C21.1971 45.3154 20.9272 45.3154 20.7022 45.3604L17.508 33.6037C18.0478 33.2883 18.4527 32.7478 18.5877 32.0721C18.8576 30.8559 18.0478 29.6397 16.8331 29.4145C16.6981 29.3694 16.5182 29.3694 16.3832 29.3694L14.8086 23.5136C15.3935 23.1982 15.8434 22.6577 16.0233 21.937C16.0683 21.6217 16.0683 21.3063 16.0233 20.991L37.0784 13.9189H37.3483L33.3893 18.7388L37.3483 15.4505L21.782 45.3604C21.557 45.3604 21.512 45.3604 21.467 45.3604Z" fill="#EFC06E"/>
</svg>
