<svg id="Слой_1" data-name="Слой 1" xmlns="http://www.w3.org/2000/svg" viewBox="0 0 119.77 63.69"><defs><style>.cls-1{fill:#010101;}</style></defs><path class="cls-1" d="M37.91,40.36H12.12v1c4.34,1.58,4.61,6.31,4.61,13.15V104H27.06V77.46h9.51c15.2,0,23.07-8.15,23.07-18.42S52,40.36,37.91,40.36Zm-.81,30h-10V47.72H37.38C46.06,47.72,49,53.77,49,59,49,65.88,44.15,70.36,37.1,70.36Z" transform="translate(-12.12 -40.36)"/><path class="cls-1" d="M96.54,40.36H69.15v1c4.38,1.55,4.66,6.21,4.66,13v48.74H96.54c24.38,0,35.34-16.59,35.34-31.64C131.88,57,120.92,40.36,96.54,40.36Zm24.38,31.38c0,12.7-8.23,23.85-26.84,23.85H84.22V47.87h9.86C112.71,47.87,121.19,59,120.92,71.74Z" transform="translate(-12.12 -40.36)"/></svg>