<svg width="104" height="100" viewBox="0 0 104 100" fill="none" xmlns="http://www.w3.org/2000/svg">
<path fill-rule="evenodd" clip-rule="evenodd" d="M52.0005 31.943C60.792 31.943 67.9189 24.7923 67.9189 15.9715C67.9189 7.15069 60.792 0 52.0005 0C43.2089 0 36.082 7.15069 36.082 15.9715C36.082 24.7923 43.2089 31.943 52.0005 31.943ZM52.0005 22.3601C55.5171 22.3601 58.3678 19.4998 58.3678 15.9715C58.3678 12.4432 55.5171 9.5829 52.0005 9.5829C48.4839 9.5829 45.6331 12.4432 45.6331 15.9715C45.6331 19.4998 48.4839 22.3601 52.0005 22.3601Z" fill="#E21B52"/>
<path d="M67.917 34.8421H92.7867C93.3728 34.8421 93.8479 34.3654 93.8479 33.7773V26.6198C93.8479 25.4436 94.7981 24.4902 95.9704 24.4902H101.876C103.049 24.4902 103.999 25.4436 103.999 26.6198V53.4164C103.999 54.5925 103.049 55.546 101.876 55.546H95.9704C94.7981 55.546 93.8479 54.5925 93.8479 53.4164V46.2587C93.8479 45.6708 93.3728 45.194 92.7867 45.194H70.6392C68.881 45.194 67.4556 46.6242 67.4556 48.3883V96.8944C67.4556 98.0705 66.5053 99.0239 65.3331 99.0239H59.4271C58.2549 99.0239 57.3047 98.0705 57.3047 96.8944V45.4898C57.3047 39.6093 62.056 34.8421 67.917 34.8421Z" fill="#E21B52"/>
<path d="M36.0818 34.8421H11.2121C10.626 34.8421 10.1509 34.3654 10.1509 33.7773V26.6198C10.1509 25.4436 9.20065 24.4902 8.02843 24.4902H2.12246C0.950256 24.4902 0 25.4436 0 26.6198V53.4164C0 54.5925 0.950256 55.546 2.12246 55.546H8.02843C9.20065 55.546 10.1509 54.5925 10.1509 53.4164V46.2587C10.1509 45.6708 10.626 45.194 11.2121 45.194H33.3595C35.1178 45.194 36.5432 46.6242 36.5432 48.3883V96.8944C36.5432 98.0705 37.4934 99.0239 38.6657 99.0239H44.5716C45.7439 99.0239 46.6941 98.0705 46.6941 96.8944V45.4898C46.6941 39.6093 41.9427 34.8421 36.0818 34.8421Z" fill="#E21B52"/>
</svg>
