<svg width="62" height="62" viewBox="0 0 62 62" fill="none" xmlns="http://www.w3.org/2000/svg">
<path d="M30.2721 17.6468C29.7875 17.6468 29.3228 17.4543 28.9802 17.1117C28.6376 16.7691 28.4451 16.3044 28.4451 15.8198C28.4451 15.3353 28.6376 14.8705 28.9802 14.5279C29.3228 14.1853 29.7875 13.9928 30.2721 13.9928H48.2765C48.5941 13.9961 48.9053 14.0825 49.1792 14.2433C49.4531 14.4042 49.6801 14.6339 49.8378 14.9096L58.5676 30.0373C58.7738 30.4532 58.8141 30.932 58.6801 31.3765C58.5461 31.8209 58.248 32.1977 57.8462 32.4303C57.4445 32.6629 56.9693 32.7339 56.5171 32.6287C56.0649 32.5236 55.6697 32.2503 55.4118 31.8643L47.2201 17.6402H30.2721V17.6468Z" fill="#007D5E"/>
<path d="M42.8888 23.3538C42.75 23.1461 42.6552 22.9121 42.6104 22.6663C42.5656 22.4205 42.5717 22.1682 42.6283 21.9249C42.6848 21.6815 42.7907 21.4524 42.9394 21.2516C43.088 21.0508 43.2762 20.8826 43.4924 20.7575C43.7086 20.6323 43.9482 20.5528 44.1963 20.5239C44.4445 20.495 44.6959 20.5172 44.9351 20.5893C45.1743 20.6614 45.3962 20.7818 45.587 20.9431C45.7778 21.1043 45.9335 21.3029 46.0445 21.5267L49.8647 28.1704L49.9178 28.2701L55.0467 37.1527C55.2102 37.4318 55.2964 37.7494 55.2964 38.0729C55.2964 38.3963 55.2102 38.7139 55.0467 38.993L49.8381 47.9221L46.2837 54.0742C46.1727 54.298 46.017 54.4966 45.8262 54.6579C45.6353 54.8191 45.4135 54.9395 45.1743 55.0116C44.9351 55.0837 44.6837 55.106 44.4355 55.077C44.1874 55.0481 43.9478 54.9686 43.7316 54.8435C43.5154 54.7183 43.3272 54.5501 43.1785 54.3493C43.0299 54.1485 42.924 53.9194 42.8674 53.6761C42.8109 53.4327 42.8048 53.1804 42.8496 52.9346C42.8944 52.6888 42.9892 52.4549 43.128 52.2472L46.6823 46.0951L51.3329 38.0297L46.7355 30.0572L46.7089 29.9443L42.8888 23.3538Z" fill="#007D5E"/>
<path d="M43.8586 36.6544C44.1165 36.2684 44.5117 35.9951 44.9638 35.89C45.416 35.7849 45.8912 35.8558 46.293 36.0884C46.6947 36.321 46.9929 36.6978 47.1269 37.1423C47.2608 37.5867 47.2206 38.0655 47.0143 38.4814L43.1942 45.1251L43.1344 45.2181L38.0121 54.0941C37.8528 54.3727 37.6226 54.6043 37.3449 54.7653C37.0672 54.9264 36.7519 55.0111 36.4309 55.0109H19.0045C18.52 55.0109 18.0552 54.8184 17.7126 54.4758C17.37 54.1332 17.1775 53.6685 17.1775 53.1839C17.1775 52.6994 17.37 52.2346 17.7126 51.892C18.0552 51.5494 18.52 51.3569 19.0045 51.3569H35.4211L40.0185 43.3845L40.0717 43.2848L43.8586 36.6544Z" fill="#007D5E"/>
<path d="M31.7477 44.2416C32.2322 44.2416 32.6969 44.4341 33.0395 44.7767C33.3822 45.1193 33.5747 45.5841 33.5747 46.0686C33.5747 46.5532 33.3822 47.0179 33.0395 47.3605C32.6969 47.7031 32.2322 47.8956 31.7477 47.8956H13.7432C13.4131 47.8959 13.0891 47.8065 12.8059 47.6368C12.5226 47.4671 12.2909 47.2236 12.1355 46.9323L6.98661 38.0098L3.43224 31.8578C3.22595 31.4419 3.18571 30.9631 3.31969 30.5186C3.45366 30.0741 3.75181 29.6973 4.15356 29.4647C4.55531 29.2322 5.03054 29.1612 5.4827 29.2663C5.93486 29.3715 6.33006 29.6448 6.58799 30.0307L10.1424 36.1828L14.793 44.2482H31.7477V44.2416Z" fill="#007D5E"/>
<path d="M19.1311 38.5412C19.2502 38.7497 19.327 38.9797 19.3573 39.2179C19.3875 39.4561 19.3705 39.6979 19.3073 39.9296C19.244 40.1613 19.1358 40.3782 18.9887 40.568C18.8416 40.7578 18.6586 40.9168 18.4501 41.0359C18.2416 41.155 18.0117 41.2319 17.7734 41.2621C17.5352 41.2923 17.2934 41.2753 17.0617 41.2121C16.8301 41.1489 16.6131 41.0406 16.4233 40.8935C16.2335 40.7465 16.0745 40.5634 15.9554 40.3549L6.97313 24.7688C6.81336 24.4921 6.72925 24.1782 6.72925 23.8587C6.72925 23.5391 6.81336 23.2252 6.97313 22.9485L15.7096 7.82078C15.9675 7.43481 16.3627 7.16151 16.8149 7.05638C17.267 6.95125 17.7423 7.02219 18.144 7.25478C18.5458 7.48738 18.8439 7.86418 18.9779 8.30865C19.1119 8.75312 19.0716 9.23193 18.8653 9.6478L10.6404 23.8653L19.1311 38.5412Z" fill="#007D5E"/>
<path d="M18.1276 25.2406C18.0165 25.4644 17.8608 25.663 17.67 25.8243C17.4792 25.9855 17.2573 26.1059 17.0181 26.178C16.7789 26.2501 16.5275 26.2724 16.2793 26.2435C16.0312 26.2145 15.7916 26.135 15.5754 26.0099C15.3592 25.8847 15.171 25.7165 15.0224 25.5157C14.8737 25.3149 14.7679 25.0858 14.7113 24.8425C14.6547 24.5991 14.6486 24.3468 14.6934 24.101C14.7383 23.8553 14.833 23.6213 14.9718 23.4136L23.974 7.82084C24.1342 7.54341 24.3647 7.31317 24.6423 7.15335C24.92 6.99354 25.2349 6.90982 25.5552 6.91065H43.0148C43.4994 6.91065 43.9641 7.10314 44.3067 7.44577C44.6493 7.7884 44.8418 8.25311 44.8418 8.73767C44.8418 9.22222 44.6493 9.68693 44.3067 10.0296C43.9641 10.3722 43.4994 10.5647 43.0148 10.5647H26.585L18.1276 25.2406Z" fill="#007D5E"/>
</svg>
