<svg xmlns="http://www.w3.org/2000/svg" width="192" height="192" fill="none"><path fill="#965EEB" d="M10.037 85.43c50.973 6.786 89.733 45.549 96.529 96.524L67.172 192C64.27 154.962 37.036 127.728 0 124.825l10.037-39.396Z"/><path fill="#04E061" d="m84.516 0 39.514 10.124C116.637 73.997 65.43 122.112 0 124.868V84.563C46.63 81.616 81.517 46.598 84.516 0Z"/><path fill="#FF4053" d="M181.946 106.57C127.671 99.333 87.255 55.864 84.516 0h40.312c2.895 37.038 30.128 64.272 67.172 67.175l-10.054 39.395Z"/><path fill="#0AF" d="M107.475 192H67.172c2.904-68.831 56-121.93 124.81-124.816v40.305c-46.543 2.895-81.499 37.913-84.507 84.511Z"/></svg>