<svg viewBox="0 0 512 486.92" xmlns="http://www.w3.org/2000/svg"><path d="m0 243.46c0-139.14 121.03-243.46 260.65-243.46s251.35 104.35 251.35 243.46-114.03 243.46-256 243.46-256-99.72-256-243.46z" fill="#ffc427"/><path d="m268.14 360.88c16.3-2.53 21.55-13.69 21.55-44.63v-110.07c0-24.85-8.41-34.49-24.7-34.49-8.41 0-20.49 4.56-31.01 16.73v133.9c0 27.39 5.25 36.01 22.08 38.54v9.64h-149.29v-9.64c21.55-2.53 27.86-13.69 27.86-44.63v-126.29c0-26.88-7.36-40.58-33.11-39.56v-9.13l127.21-31.95h2.63l-7.36 62.38h4.21c17.34-30.94 48.36-61.37 93.56-61.37 42.57 0 67.28 24.35 67.28 76.08v135.93c0 27.39 6.83 36.01 27.33 38.54v9.64h-148.23v-9.64z"/></svg>